<svg width="925" height="1577" xmlns="http://www.w3.org/2000/svg" xmlns:xlink="http://www.w3.org/1999/xlink" xml:space="preserve" overflow="hidden"><g transform="translate(-1077 -3015)"><g><path d="M1081.65 3017.87 1998.32 3017.87 1998.32 3109.54 1081.65 3109.54Z" fill="#FFFFFF" fill-rule="evenodd" fill-opacity="1"/><path d="M1081.65 3109.54 1998.32 3109.54 1998.32 3201.21 1081.65 3201.21Z" fill="#FFFFFF" fill-rule="evenodd" fill-opacity="1"/><path d="M1081.65 3201.21 1998.32 3201.21 1998.32 3292.87 1081.65 3292.87Z" fill="#FFFFFF" fill-rule="evenodd" fill-opacity="1"/><path d="M1081.65 3292.87 1998.32 3292.87 1998.32 3384.54 1081.65 3384.54Z" fill="#FFFFFF" fill-rule="evenodd" fill-opacity="1"/><path d="M1081.65 3384.54 1998.32 3384.54 1998.32 3476.21 1081.65 3476.21Z" fill="#FFFFFF" fill-rule="evenodd" fill-opacity="1"/><path d="M1081.65 3476.21 1998.32 3476.21 1998.32 3567.87 1081.65 3567.87Z" fill="#FFFFFF" fill-rule="evenodd" fill-opacity="1"/><path d="M1081.65 3567.87 1998.32 3567.87 1998.32 3659.54 1081.65 3659.54Z" fill="#FFFFFF" fill-rule="evenodd" fill-opacity="1"/><path d="M1081.65 3659.54 1998.32 3659.54 1998.32 3751.21 1081.65 3751.21Z" fill="#FFFFFF" fill-rule="evenodd" fill-opacity="1"/><path d="M1081.65 3751.21 1998.32 3751.21 1998.32 3842.87 1081.65 3842.87Z" fill="#FFFFFF" fill-rule="evenodd" fill-opacity="1"/><path d="M1081.65 3842.87 1998.32 3842.87 1998.32 3934.54 1081.65 3934.54Z" fill="#FFFFFF" fill-rule="evenodd" fill-opacity="1"/><path d="M1081.65 3934.54 1998.32 3934.54 1998.32 4026.21 1081.65 4026.21Z" fill="#FFFFFF" fill-rule="evenodd" fill-opacity="1"/><path d="M1081.65 4026.21 1998.32 4026.21 1998.32 4117.87 1081.65 4117.87Z" fill="#FFFFFF" fill-rule="evenodd" fill-opacity="1"/><path d="M1081.65 4117.87 1998.32 4117.87 1998.32 4209.54 1081.65 4209.54Z" fill="#FFFFFF" fill-rule="evenodd" fill-opacity="1"/><path d="M1081.65 4209.54 1998.32 4209.54 1998.32 4301.21 1081.65 4301.21Z" fill="#FFFFFF" fill-rule="evenodd" fill-opacity="1"/><path d="M1081.65 4301.21 1998.32 4301.21 1998.32 4392.87 1081.65 4392.87Z" fill="#FFFFFF" fill-rule="evenodd" fill-opacity="1"/><path d="M1081.65 4392.87 1998.32 4392.87 1998.32 4484.54 1081.65 4484.54Z" fill="#FFFFFF" fill-rule="evenodd" fill-opacity="1"/><path d="M1081.65 4484.54 1998.32 4484.54 1998.32 4576.21 1081.65 4576.21Z" fill="#FFFFFF" fill-rule="evenodd" fill-opacity="1"/><path d="M1080.51 3109.54 1999.46 3109.54" stroke="#000000" stroke-width="2.29167" stroke-linecap="butt" stroke-linejoin="round" stroke-miterlimit="10" stroke-opacity="1" fill="none" fill-rule="evenodd"/><path d="M1080.51 3201.21 1999.46 3201.21" stroke="#000000" stroke-width="2.29167" stroke-linecap="butt" stroke-linejoin="round" stroke-miterlimit="10" stroke-opacity="1" fill="none" fill-rule="evenodd"/><path d="M1080.51 3292.87 1999.46 3292.87" stroke="#000000" stroke-width="2.29167" stroke-linecap="butt" stroke-linejoin="round" stroke-miterlimit="10" stroke-opacity="1" fill="none" fill-rule="evenodd"/><path d="M1080.51 3384.54 1999.46 3384.54" stroke="#000000" stroke-width="2.29167" stroke-linecap="butt" stroke-linejoin="round" stroke-miterlimit="10" stroke-opacity="1" fill="none" fill-rule="evenodd"/><path d="M1080.51 3476.21 1999.46 3476.21" stroke="#000000" stroke-width="2.29167" stroke-linecap="butt" stroke-linejoin="round" stroke-miterlimit="10" stroke-opacity="1" fill="none" fill-rule="evenodd"/><path d="M1080.51 3567.87 1999.46 3567.87" stroke="#000000" stroke-width="2.29167" stroke-linecap="butt" stroke-linejoin="round" stroke-miterlimit="10" stroke-opacity="1" fill="none" fill-rule="evenodd"/><path d="M1080.51 3659.54 1999.46 3659.54" stroke="#000000" stroke-width="2.29167" stroke-linecap="butt" stroke-linejoin="round" stroke-miterlimit="10" stroke-opacity="1" fill="none" fill-rule="evenodd"/><path d="M1080.51 3751.21 1999.46 3751.21" stroke="#000000" stroke-width="2.29167" stroke-linecap="butt" stroke-linejoin="round" stroke-miterlimit="10" stroke-opacity="1" fill="none" fill-rule="evenodd"/><path d="M1080.51 3842.87 1999.46 3842.87" stroke="#000000" stroke-width="2.29167" stroke-linecap="butt" stroke-linejoin="round" stroke-miterlimit="10" stroke-opacity="1" fill="none" fill-rule="evenodd"/><path d="M1080.51 3934.54 1999.46 3934.54" stroke="#000000" stroke-width="2.29167" stroke-linecap="butt" stroke-linejoin="round" stroke-miterlimit="10" stroke-opacity="1" fill="none" fill-rule="evenodd"/><path d="M1080.51 4026.21 1999.46 4026.21" stroke="#000000" stroke-width="2.29167" stroke-linecap="butt" stroke-linejoin="round" stroke-miterlimit="10" stroke-opacity="1" fill="none" fill-rule="evenodd"/><path d="M1080.51 4117.87 1999.46 4117.87" stroke="#000000" stroke-width="2.29167" stroke-linecap="butt" stroke-linejoin="round" stroke-miterlimit="10" stroke-opacity="1" fill="none" fill-rule="evenodd"/><path d="M1080.51 4209.54 1999.46 4209.54" stroke="#000000" stroke-width="2.29167" stroke-linecap="butt" stroke-linejoin="round" stroke-miterlimit="10" stroke-opacity="1" fill="none" fill-rule="evenodd"/><path d="M1080.51 4301.21 1999.46 4301.21" stroke="#000000" stroke-width="2.29167" stroke-linecap="butt" stroke-linejoin="round" stroke-miterlimit="10" stroke-opacity="1" fill="none" fill-rule="evenodd"/><path d="M1080.51 4392.87 1999.46 4392.87" stroke="#000000" stroke-width="2.29167" stroke-linecap="butt" stroke-linejoin="round" stroke-miterlimit="10" stroke-opacity="1" fill="none" fill-rule="evenodd"/><path d="M1080.51 4484.54 1999.46 4484.54" stroke="#000000" stroke-width="2.29167" stroke-linecap="butt" stroke-linejoin="round" stroke-miterlimit="10" stroke-opacity="1" fill="none" fill-rule="evenodd"/><path d="M1081.65 3016.73 1081.65 4577.35" stroke="#000000" stroke-width="2.29167" stroke-linecap="butt" stroke-linejoin="round" stroke-miterlimit="10" stroke-opacity="1" fill="none" fill-rule="evenodd"/><path d="M1998.32 3016.73 1998.32 4577.35" stroke="#000000" stroke-width="2.29167" stroke-linecap="butt" stroke-linejoin="round" stroke-miterlimit="10" stroke-opacity="1" fill="none" fill-rule="evenodd"/><path d="M1080.51 3017.87 1999.46 3017.87" stroke="#000000" stroke-width="2.29167" stroke-linecap="butt" stroke-linejoin="round" stroke-miterlimit="10" stroke-opacity="1" fill="none" fill-rule="evenodd"/><path d="M1080.51 4576.21 1999.46 4576.21" stroke="#000000" stroke-width="2.29167" stroke-linecap="butt" stroke-linejoin="round" stroke-miterlimit="10" stroke-opacity="1" fill="none" fill-rule="evenodd"/><path d="M1338.03 3046.93 1429.7 3046.93 1429.7 3092.93 1338.03 3092.93Z" fill="#FFFFFF" fill-rule="evenodd" fill-opacity="1"/><path d="M1429.7 3046.93 1478.97 3046.93 1478.97 3092.93 1429.7 3092.93Z" fill="#FFFFFF" fill-rule="evenodd" fill-opacity="1"/><path d="M1478.97 3046.93 1708.14 3046.93 1708.14 3092.93 1478.97 3092.93Z" fill="#FFFFFF" fill-rule="evenodd" fill-opacity="1"/><path d="M1708.14 3046.93 1741.94 3046.93 1741.94 3092.93 1708.14 3092.93Z" fill="#FFFFFF" fill-rule="evenodd" fill-opacity="1"/><text fill="#000000" fill-opacity="1" font-family="HGMaruGothicMPRO,HGMaruGothicMPRO_MSFontService,sans-serif" font-style="normal" font-variant="normal" font-weight="400" font-stretch="normal" font-size="46" text-anchor="start" direction="ltr" writing-mode="lr-tb" unicode-bidi="normal" text-decoration="none" transform="matrix(1 0 0 1 1338.03 3082)">要素</text><text fill="#000000" fill-opacity="1" font-family="HGMaruGothicMPRO,HGMaruGothicMPRO_MSFontService,sans-serif" font-style="normal" font-variant="normal" font-weight="400" font-stretch="normal" font-size="46" text-anchor="start" direction="ltr" writing-mode="lr-tb" unicode-bidi="normal" text-decoration="none" transform="matrix(1 0 0 1 1429.7 3082)">1 </text><text fill="#000000" fill-opacity="1" font-family="HGMaruGothicMPRO,HGMaruGothicMPRO_MSFontService,sans-serif" font-style="normal" font-variant="normal" font-weight="400" font-stretch="normal" font-size="46" text-anchor="start" direction="ltr" writing-mode="lr-tb" unicode-bidi="normal" text-decoration="none" transform="matrix(1 0 0 1 1478.97 3082)">構成ノード</text><text fill="#000000" fill-opacity="1" font-family="HGMaruGothicMPRO,HGMaruGothicMPRO_MSFontService,sans-serif" font-style="normal" font-variant="normal" font-weight="400" font-stretch="normal" font-size="46" text-anchor="start" direction="ltr" writing-mode="lr-tb" unicode-bidi="normal" text-decoration="none" transform="matrix(1 0 0 1 1708.14 3082)">1</text><path d="M1338.03 3138.6 1429.7 3138.6 1429.7 3184.6 1338.03 3184.6Z" fill="#FFFFFF" fill-rule="evenodd" fill-opacity="1"/><path d="M1429.7 3138.6 1478.97 3138.6 1478.97 3184.6 1429.7 3184.6Z" fill="#FFFFFF" fill-rule="evenodd" fill-opacity="1"/><path d="M1478.97 3138.6 1708.14 3138.6 1708.14 3184.6 1478.97 3184.6Z" fill="#FFFFFF" fill-rule="evenodd" fill-opacity="1"/><path d="M1708.14 3138.6 1741.94 3138.6 1741.94 3184.6 1708.14 3184.6Z" fill="#FFFFFF" fill-rule="evenodd" fill-opacity="1"/><text fill="#000000" fill-opacity="1" font-family="HGMaruGothicMPRO,HGMaruGothicMPRO_MSFontService,sans-serif" font-style="normal" font-variant="normal" font-weight="400" font-stretch="normal" font-size="46" text-anchor="start" direction="ltr" writing-mode="lr-tb" unicode-bidi="normal" text-decoration="none" transform="matrix(1 0 0 1 1338.03 3174)">要素</text><text fill="#000000" fill-opacity="1" font-family="HGMaruGothicMPRO,HGMaruGothicMPRO_MSFontService,sans-serif" font-style="normal" font-variant="normal" font-weight="400" font-stretch="normal" font-size="46" text-anchor="start" direction="ltr" writing-mode="lr-tb" unicode-bidi="normal" text-decoration="none" transform="matrix(1 0 0 1 1429.7 3174)">1 </text><text fill="#000000" fill-opacity="1" font-family="HGMaruGothicMPRO,HGMaruGothicMPRO_MSFontService,sans-serif" font-style="normal" font-variant="normal" font-weight="400" font-stretch="normal" font-size="46" text-anchor="start" direction="ltr" writing-mode="lr-tb" unicode-bidi="normal" text-decoration="none" transform="matrix(1 0 0 1 1478.97 3174)">構成ノード</text><text fill="#000000" fill-opacity="1" font-family="HGMaruGothicMPRO,HGMaruGothicMPRO_MSFontService,sans-serif" font-style="normal" font-variant="normal" font-weight="400" font-stretch="normal" font-size="46" text-anchor="start" direction="ltr" writing-mode="lr-tb" unicode-bidi="normal" text-decoration="none" transform="matrix(1 0 0 1 1708.14 3174)">2</text><path d="M1535.12 3230.26 1544.86 3230.26 1544.86 3276.26 1535.12 3276.26Z" fill="#FFFFFF" fill-rule="evenodd" fill-opacity="1"/><text fill="#000000" fill-opacity="1" font-family="HGMaruGothicMPRO,HGMaruGothicMPRO_MSFontService,sans-serif" font-style="normal" font-variant="normal" font-weight="400" font-stretch="normal" font-size="46" text-anchor="start" direction="ltr" writing-mode="lr-tb" unicode-bidi="normal" text-decoration="none" transform="matrix(1 0 0 1 1535.12 3265)">:</text><path d="M1339.46 3321.93 1431.13 3321.93 1431.13 3367.93 1339.46 3367.93Z" fill="#FFFFFF" fill-rule="evenodd" fill-opacity="1"/><path d="M1431.13 3321.93 1480.4 3321.93 1480.4 3367.93 1431.13 3367.93Z" fill="#FFFFFF" fill-rule="evenodd" fill-opacity="1"/><path d="M1480.4 3321.93 1709.57 3321.93 1709.57 3367.93 1480.4 3367.93Z" fill="#FFFFFF" fill-rule="evenodd" fill-opacity="1"/><path d="M1709.57 3321.93 1740.51 3321.93 1740.51 3367.93 1709.57 3367.93Z" fill="#FFFFFF" fill-rule="evenodd" fill-opacity="1"/><text fill="#000000" fill-opacity="1" font-family="HGMaruGothicMPRO,HGMaruGothicMPRO_MSFontService,sans-serif" font-style="normal" font-variant="normal" font-weight="400" font-stretch="normal" font-size="46" text-anchor="start" direction="ltr" writing-mode="lr-tb" unicode-bidi="normal" text-decoration="none" transform="matrix(1 0 0 1 1339.46 3357)">要素</text><text fill="#000000" fill-opacity="1" font-family="HGMaruGothicMPRO,HGMaruGothicMPRO_MSFontService,sans-serif" font-style="normal" font-variant="normal" font-weight="400" font-stretch="normal" font-size="46" text-anchor="start" direction="ltr" writing-mode="lr-tb" unicode-bidi="normal" text-decoration="none" transform="matrix(1 0 0 1 1431.13 3357)">1 </text><text fill="#000000" fill-opacity="1" font-family="HGMaruGothicMPRO,HGMaruGothicMPRO_MSFontService,sans-serif" font-style="normal" font-variant="normal" font-weight="400" font-stretch="normal" font-size="46" text-anchor="start" direction="ltr" writing-mode="lr-tb" unicode-bidi="normal" text-decoration="none" transform="matrix(1 0 0 1 1480.4 3357)">構成ノード</text><text fill="#000000" fill-opacity="1" font-family="HGMaruGothicMPRO,HGMaruGothicMPRO_MSFontService,sans-serif" font-style="normal" font-variant="normal" font-weight="400" font-stretch="normal" font-size="46" text-anchor="start" direction="ltr" writing-mode="lr-tb" unicode-bidi="normal" text-decoration="none" transform="matrix(1 0 0 1 1709.57 3357)">n</text><path d="M1338.03 3413.6 1429.7 3413.6 1429.7 3459.6 1338.03 3459.6Z" fill="#FFFFFF" fill-rule="evenodd" fill-opacity="1"/><path d="M1429.7 3413.6 1478.97 3413.6 1478.97 3459.6 1429.7 3459.6Z" fill="#FFFFFF" fill-rule="evenodd" fill-opacity="1"/><path d="M1478.97 3413.6 1708.14 3413.6 1708.14 3459.6 1478.97 3459.6Z" fill="#FFFFFF" fill-rule="evenodd" fill-opacity="1"/><path d="M1708.14 3413.6 1741.94 3413.6 1741.94 3459.6 1708.14 3459.6Z" fill="#FFFFFF" fill-rule="evenodd" fill-opacity="1"/><text fill="#000000" fill-opacity="1" font-family="HGMaruGothicMPRO,HGMaruGothicMPRO_MSFontService,sans-serif" font-style="normal" font-variant="normal" font-weight="400" font-stretch="normal" font-size="46" text-anchor="start" direction="ltr" writing-mode="lr-tb" unicode-bidi="normal" text-decoration="none" transform="matrix(1 0 0 1 1338.03 3449)">要素</text><text fill="#000000" fill-opacity="1" font-family="HGMaruGothicMPRO,HGMaruGothicMPRO_MSFontService,sans-serif" font-style="normal" font-variant="normal" font-weight="400" font-stretch="normal" font-size="46" text-anchor="start" direction="ltr" writing-mode="lr-tb" unicode-bidi="normal" text-decoration="none" transform="matrix(1 0 0 1 1429.7 3449)">2 </text><text fill="#000000" fill-opacity="1" font-family="HGMaruGothicMPRO,HGMaruGothicMPRO_MSFontService,sans-serif" font-style="normal" font-variant="normal" font-weight="400" font-stretch="normal" font-size="46" text-anchor="start" direction="ltr" writing-mode="lr-tb" unicode-bidi="normal" text-decoration="none" transform="matrix(1 0 0 1 1478.97 3449)">構成ノード</text><text fill="#000000" fill-opacity="1" font-family="HGMaruGothicMPRO,HGMaruGothicMPRO_MSFontService,sans-serif" font-style="normal" font-variant="normal" font-weight="400" font-stretch="normal" font-size="46" text-anchor="start" direction="ltr" writing-mode="lr-tb" unicode-bidi="normal" text-decoration="none" transform="matrix(1 0 0 1 1708.14 3449)">1</text><path d="M1338.03 3505.26 1429.7 3505.26 1429.7 3551.26 1338.03 3551.26Z" fill="#FFFFFF" fill-rule="evenodd" fill-opacity="1"/><path d="M1429.7 3505.26 1478.97 3505.26 1478.97 3551.26 1429.7 3551.26Z" fill="#FFFFFF" fill-rule="evenodd" fill-opacity="1"/><path d="M1478.97 3505.26 1708.14 3505.26 1708.14 3551.26 1478.97 3551.26Z" fill="#FFFFFF" fill-rule="evenodd" fill-opacity="1"/><path d="M1708.14 3505.26 1741.94 3505.26 1741.94 3551.26 1708.14 3551.26Z" fill="#FFFFFF" fill-rule="evenodd" fill-opacity="1"/><text fill="#000000" fill-opacity="1" font-family="HGMaruGothicMPRO,HGMaruGothicMPRO_MSFontService,sans-serif" font-style="normal" font-variant="normal" font-weight="400" font-stretch="normal" font-size="46" text-anchor="start" direction="ltr" writing-mode="lr-tb" unicode-bidi="normal" text-decoration="none" transform="matrix(1 0 0 1 1338.03 3540)">要素</text><text fill="#000000" fill-opacity="1" font-family="HGMaruGothicMPRO,HGMaruGothicMPRO_MSFontService,sans-serif" font-style="normal" font-variant="normal" font-weight="400" font-stretch="normal" font-size="46" text-anchor="start" direction="ltr" writing-mode="lr-tb" unicode-bidi="normal" text-decoration="none" transform="matrix(1 0 0 1 1429.7 3540)">2 </text><text fill="#000000" fill-opacity="1" font-family="HGMaruGothicMPRO,HGMaruGothicMPRO_MSFontService,sans-serif" font-style="normal" font-variant="normal" font-weight="400" font-stretch="normal" font-size="46" text-anchor="start" direction="ltr" writing-mode="lr-tb" unicode-bidi="normal" text-decoration="none" transform="matrix(1 0 0 1 1478.97 3540)">構成ノード</text><text fill="#000000" fill-opacity="1" font-family="HGMaruGothicMPRO,HGMaruGothicMPRO_MSFontService,sans-serif" font-style="normal" font-variant="normal" font-weight="400" font-stretch="normal" font-size="46" text-anchor="start" direction="ltr" writing-mode="lr-tb" unicode-bidi="normal" text-decoration="none" transform="matrix(1 0 0 1 1708.14 3540)">2</text><path d="M1535.12 3596.93 1544.86 3596.93 1544.86 3642.93 1535.12 3642.93Z" fill="#FFFFFF" fill-rule="evenodd" fill-opacity="1"/><text fill="#000000" fill-opacity="1" font-family="HGMaruGothicMPRO,HGMaruGothicMPRO_MSFontService,sans-serif" font-style="normal" font-variant="normal" font-weight="400" font-stretch="normal" font-size="46" text-anchor="start" direction="ltr" writing-mode="lr-tb" unicode-bidi="normal" text-decoration="none" transform="matrix(1 0 0 1 1535.12 3632)">:</text><path d="M1339.46 3688.6 1431.13 3688.6 1431.13 3734.6 1339.46 3734.6Z" fill="#FFFFFF" fill-rule="evenodd" fill-opacity="1"/><path d="M1431.13 3688.6 1480.4 3688.6 1480.4 3734.6 1431.13 3734.6Z" fill="#FFFFFF" fill-rule="evenodd" fill-opacity="1"/><path d="M1480.4 3688.6 1709.57 3688.6 1709.57 3734.6 1480.4 3734.6Z" fill="#FFFFFF" fill-rule="evenodd" fill-opacity="1"/><path d="M1709.57 3688.6 1740.51 3688.6 1740.51 3734.6 1709.57 3734.6Z" fill="#FFFFFF" fill-rule="evenodd" fill-opacity="1"/><text fill="#000000" fill-opacity="1" font-family="HGMaruGothicMPRO,HGMaruGothicMPRO_MSFontService,sans-serif" font-style="normal" font-variant="normal" font-weight="400" font-stretch="normal" font-size="46" text-anchor="start" direction="ltr" writing-mode="lr-tb" unicode-bidi="normal" text-decoration="none" transform="matrix(1 0 0 1 1339.46 3724)">要素</text><text fill="#000000" fill-opacity="1" font-family="HGMaruGothicMPRO,HGMaruGothicMPRO_MSFontService,sans-serif" font-style="normal" font-variant="normal" font-weight="400" font-stretch="normal" font-size="46" text-anchor="start" direction="ltr" writing-mode="lr-tb" unicode-bidi="normal" text-decoration="none" transform="matrix(1 0 0 1 1431.13 3724)">2 </text><text fill="#000000" fill-opacity="1" font-family="HGMaruGothicMPRO,HGMaruGothicMPRO_MSFontService,sans-serif" font-style="normal" font-variant="normal" font-weight="400" font-stretch="normal" font-size="46" text-anchor="start" direction="ltr" writing-mode="lr-tb" unicode-bidi="normal" text-decoration="none" transform="matrix(1 0 0 1 1480.4 3724)">構成ノード</text><text fill="#000000" fill-opacity="1" font-family="HGMaruGothicMPRO,HGMaruGothicMPRO_MSFontService,sans-serif" font-style="normal" font-variant="normal" font-weight="400" font-stretch="normal" font-size="46" text-anchor="start" direction="ltr" writing-mode="lr-tb" unicode-bidi="normal" text-decoration="none" transform="matrix(1 0 0 1 1709.57 3724)">n</text><path d="M1338.03 3780.26 1429.7 3780.26 1429.7 3826.26 1338.03 3826.26Z" fill="#FFFFFF" fill-rule="evenodd" fill-opacity="1"/><path d="M1429.7 3780.26 1478.97 3780.26 1478.97 3826.26 1429.7 3826.26Z" fill="#FFFFFF" fill-rule="evenodd" fill-opacity="1"/><path d="M1478.97 3780.26 1708.14 3780.26 1708.14 3826.26 1478.97 3826.26Z" fill="#FFFFFF" fill-rule="evenodd" fill-opacity="1"/><path d="M1708.14 3780.26 1741.94 3780.26 1741.94 3826.26 1708.14 3826.26Z" fill="#FFFFFF" fill-rule="evenodd" fill-opacity="1"/><text fill="#000000" fill-opacity="1" font-family="HGMaruGothicMPRO,HGMaruGothicMPRO_MSFontService,sans-serif" font-style="normal" font-variant="normal" font-weight="400" font-stretch="normal" font-size="46" text-anchor="start" direction="ltr" writing-mode="lr-tb" unicode-bidi="normal" text-decoration="none" transform="matrix(1 0 0 1 1338.03 3815)">要素</text><text fill="#000000" fill-opacity="1" font-family="HGMaruGothicMPRO,HGMaruGothicMPRO_MSFontService,sans-serif" font-style="normal" font-variant="normal" font-weight="400" font-stretch="normal" font-size="46" text-anchor="start" direction="ltr" writing-mode="lr-tb" unicode-bidi="normal" text-decoration="none" transform="matrix(1 0 0 1 1429.7 3815)">3 </text><text fill="#000000" fill-opacity="1" font-family="HGMaruGothicMPRO,HGMaruGothicMPRO_MSFontService,sans-serif" font-style="normal" font-variant="normal" font-weight="400" font-stretch="normal" font-size="46" text-anchor="start" direction="ltr" writing-mode="lr-tb" unicode-bidi="normal" text-decoration="none" transform="matrix(1 0 0 1 1478.97 3815)">構成ノード</text><text fill="#000000" fill-opacity="1" font-family="HGMaruGothicMPRO,HGMaruGothicMPRO_MSFontService,sans-serif" font-style="normal" font-variant="normal" font-weight="400" font-stretch="normal" font-size="46" text-anchor="start" direction="ltr" writing-mode="lr-tb" unicode-bidi="normal" text-decoration="none" transform="matrix(1 0 0 1 1708.14 3815)">1</text><path d="M1338.03 3871.93 1429.7 3871.93 1429.7 3917.93 1338.03 3917.93Z" fill="#FFFFFF" fill-rule="evenodd" fill-opacity="1"/><path d="M1429.7 3871.93 1478.97 3871.93 1478.97 3917.93 1429.7 3917.93Z" fill="#FFFFFF" fill-rule="evenodd" fill-opacity="1"/><path d="M1478.97 3871.93 1708.14 3871.93 1708.14 3917.93 1478.97 3917.93Z" fill="#FFFFFF" fill-rule="evenodd" fill-opacity="1"/><path d="M1708.14 3871.93 1741.94 3871.93 1741.94 3917.93 1708.14 3917.93Z" fill="#FFFFFF" fill-rule="evenodd" fill-opacity="1"/><text fill="#000000" fill-opacity="1" font-family="HGMaruGothicMPRO,HGMaruGothicMPRO_MSFontService,sans-serif" font-style="normal" font-variant="normal" font-weight="400" font-stretch="normal" font-size="46" text-anchor="start" direction="ltr" writing-mode="lr-tb" unicode-bidi="normal" text-decoration="none" transform="matrix(1 0 0 1 1338.03 3907)">要素</text><text fill="#000000" fill-opacity="1" font-family="HGMaruGothicMPRO,HGMaruGothicMPRO_MSFontService,sans-serif" font-style="normal" font-variant="normal" font-weight="400" font-stretch="normal" font-size="46" text-anchor="start" direction="ltr" writing-mode="lr-tb" unicode-bidi="normal" text-decoration="none" transform="matrix(1 0 0 1 1429.7 3907)">3 </text><text fill="#000000" fill-opacity="1" font-family="HGMaruGothicMPRO,HGMaruGothicMPRO_MSFontService,sans-serif" font-style="normal" font-variant="normal" font-weight="400" font-stretch="normal" font-size="46" text-anchor="start" direction="ltr" writing-mode="lr-tb" unicode-bidi="normal" text-decoration="none" transform="matrix(1 0 0 1 1478.97 3907)">構成ノード</text><text fill="#000000" fill-opacity="1" font-family="HGMaruGothicMPRO,HGMaruGothicMPRO_MSFontService,sans-serif" font-style="normal" font-variant="normal" font-weight="400" font-stretch="normal" font-size="46" text-anchor="start" direction="ltr" writing-mode="lr-tb" unicode-bidi="normal" text-decoration="none" transform="matrix(1 0 0 1 1708.14 3907)">2</text><path d="M1535.12 3963.6 1544.86 3963.6 1544.86 4009.6 1535.12 4009.6Z" fill="#FFFFFF" fill-rule="evenodd" fill-opacity="1"/><text fill="#000000" fill-opacity="1" font-family="HGMaruGothicMPRO,HGMaruGothicMPRO_MSFontService,sans-serif" font-style="normal" font-variant="normal" font-weight="400" font-stretch="normal" font-size="46" text-anchor="start" direction="ltr" writing-mode="lr-tb" unicode-bidi="normal" text-decoration="none" transform="matrix(1 0 0 1 1535.12 3999)">:</text><path d="M1347.2 4055.26 1438.87 4055.26 1438.87 4101.26 1347.2 4101.26Z" fill="#FFFFFF" fill-rule="evenodd" fill-opacity="1"/><path d="M1438.87 4055.26 1472.67 4055.26 1472.67 4101.26 1438.87 4101.26Z" fill="#FFFFFF" fill-rule="evenodd" fill-opacity="1"/><path d="M1472.67 4055.26 1701.83 4055.26 1701.83 4101.26 1472.67 4101.26Z" fill="#FFFFFF" fill-rule="evenodd" fill-opacity="1"/><path d="M1701.83 4055.26 1732.77 4055.26 1732.77 4101.26 1701.83 4101.26Z" fill="#FFFFFF" fill-rule="evenodd" fill-opacity="1"/><text fill="#000000" fill-opacity="1" font-family="HGMaruGothicMPRO,HGMaruGothicMPRO_MSFontService,sans-serif" font-style="normal" font-variant="normal" font-weight="400" font-stretch="normal" font-size="46" text-anchor="start" direction="ltr" writing-mode="lr-tb" unicode-bidi="normal" text-decoration="none" transform="matrix(1 0 0 1 1347.2 4090)">要素</text><text fill="#000000" fill-opacity="1" font-family="HGMaruGothicMPRO,HGMaruGothicMPRO_MSFontService,sans-serif" font-style="normal" font-variant="normal" font-weight="400" font-stretch="normal" font-size="46" text-anchor="start" direction="ltr" writing-mode="lr-tb" unicode-bidi="normal" text-decoration="none" transform="matrix(1 0 0 1 1438.87 4090)">3</text><text fill="#000000" fill-opacity="1" font-family="HGMaruGothicMPRO,HGMaruGothicMPRO_MSFontService,sans-serif" font-style="normal" font-variant="normal" font-weight="400" font-stretch="normal" font-size="46" text-anchor="start" direction="ltr" writing-mode="lr-tb" unicode-bidi="normal" text-decoration="none" transform="matrix(1 0 0 1 1472.67 4090)">構成ノード</text><text fill="#000000" fill-opacity="1" font-family="HGMaruGothicMPRO,HGMaruGothicMPRO_MSFontService,sans-serif" font-style="normal" font-variant="normal" font-weight="400" font-stretch="normal" font-size="46" text-anchor="start" direction="ltr" writing-mode="lr-tb" unicode-bidi="normal" text-decoration="none" transform="matrix(1 0 0 1 1701.83 4090)">n</text><path d="M1535.12 4146.93 1544.86 4146.93 1544.86 4192.93 1535.12 4192.93Z" fill="#FFFFFF" fill-rule="evenodd" fill-opacity="1"/><text fill="#000000" fill-opacity="1" font-family="HGMaruGothicMPRO,HGMaruGothicMPRO_MSFontService,sans-serif" font-style="normal" font-variant="normal" font-weight="400" font-stretch="normal" font-size="46" text-anchor="start" direction="ltr" writing-mode="lr-tb" unicode-bidi="normal" text-decoration="none" transform="matrix(1 0 0 1 1535.12 4182)">:</text><path d="M1336.31 4238.6 1427.98 4238.6 1427.98 4284.6 1336.31 4284.6Z" fill="#FFFFFF" fill-rule="evenodd" fill-opacity="1"/><path d="M1427.98 4238.6 1480.69 4238.6 1480.69 4284.6 1427.98 4284.6Z" fill="#FFFFFF" fill-rule="evenodd" fill-opacity="1"/><path d="M1480.69 4238.6 1709.86 4238.6 1709.86 4284.6 1480.69 4284.6Z" fill="#FFFFFF" fill-rule="evenodd" fill-opacity="1"/><path d="M1709.86 4238.6 1743.66 4238.6 1743.66 4284.6 1709.86 4284.6Z" fill="#FFFFFF" fill-rule="evenodd" fill-opacity="1"/><text fill="#000000" fill-opacity="1" font-family="HGMaruGothicMPRO,HGMaruGothicMPRO_MSFontService,sans-serif" font-style="normal" font-variant="normal" font-weight="400" font-stretch="normal" font-size="46" text-anchor="start" direction="ltr" writing-mode="lr-tb" unicode-bidi="normal" text-decoration="none" transform="matrix(1 0 0 1 1336.31 4274)">要素</text><text fill="#000000" fill-opacity="1" font-family="HGMaruGothicMPRO,HGMaruGothicMPRO_MSFontService,sans-serif" font-style="normal" font-variant="normal" font-weight="400" font-stretch="normal" font-size="46" text-anchor="start" direction="ltr" writing-mode="lr-tb" unicode-bidi="normal" text-decoration="none" transform="matrix(1 0 0 1 1427.98 4274)">N </text><text fill="#000000" fill-opacity="1" font-family="HGMaruGothicMPRO,HGMaruGothicMPRO_MSFontService,sans-serif" font-style="normal" font-variant="normal" font-weight="400" font-stretch="normal" font-size="46" text-anchor="start" direction="ltr" writing-mode="lr-tb" unicode-bidi="normal" text-decoration="none" transform="matrix(1 0 0 1 1480.69 4274)">構成ノード</text><text fill="#000000" fill-opacity="1" font-family="HGMaruGothicMPRO,HGMaruGothicMPRO_MSFontService,sans-serif" font-style="normal" font-variant="normal" font-weight="400" font-stretch="normal" font-size="46" text-anchor="start" direction="ltr" writing-mode="lr-tb" unicode-bidi="normal" text-decoration="none" transform="matrix(1 0 0 1 1709.86 4274)">1</text><path d="M1336.31 4330.26 1427.98 4330.26 1427.98 4376.26 1336.31 4376.26Z" fill="#FFFFFF" fill-rule="evenodd" fill-opacity="1"/><path d="M1427.98 4330.26 1480.69 4330.26 1480.69 4376.26 1427.98 4376.26Z" fill="#FFFFFF" fill-rule="evenodd" fill-opacity="1"/><path d="M1480.69 4330.26 1709.86 4330.26 1709.86 4376.26 1480.69 4376.26Z" fill="#FFFFFF" fill-rule="evenodd" fill-opacity="1"/><path d="M1709.86 4330.26 1743.66 4330.26 1743.66 4376.26 1709.86 4376.26Z" fill="#FFFFFF" fill-rule="evenodd" fill-opacity="1"/><text fill="#000000" fill-opacity="1" font-family="HGMaruGothicMPRO,HGMaruGothicMPRO_MSFontService,sans-serif" font-style="normal" font-variant="normal" font-weight="400" font-stretch="normal" font-size="46" text-anchor="start" direction="ltr" writing-mode="lr-tb" unicode-bidi="normal" text-decoration="none" transform="matrix(1 0 0 1 1336.31 4365)">要素</text><text fill="#000000" fill-opacity="1" font-family="HGMaruGothicMPRO,HGMaruGothicMPRO_MSFontService,sans-serif" font-style="normal" font-variant="normal" font-weight="400" font-stretch="normal" font-size="46" text-anchor="start" direction="ltr" writing-mode="lr-tb" unicode-bidi="normal" text-decoration="none" transform="matrix(1 0 0 1 1427.98 4365)">N </text><text fill="#000000" fill-opacity="1" font-family="HGMaruGothicMPRO,HGMaruGothicMPRO_MSFontService,sans-serif" font-style="normal" font-variant="normal" font-weight="400" font-stretch="normal" font-size="46" text-anchor="start" direction="ltr" writing-mode="lr-tb" unicode-bidi="normal" text-decoration="none" transform="matrix(1 0 0 1 1480.69 4365)">構成ノード</text><text fill="#000000" fill-opacity="1" font-family="HGMaruGothicMPRO,HGMaruGothicMPRO_MSFontService,sans-serif" font-style="normal" font-variant="normal" font-weight="400" font-stretch="normal" font-size="46" text-anchor="start" direction="ltr" writing-mode="lr-tb" unicode-bidi="normal" text-decoration="none" transform="matrix(1 0 0 1 1709.86 4365)">2</text><path d="M1535.12 4421.93 1544.86 4421.93 1544.86 4467.93 1535.12 4467.93Z" fill="#FFFFFF" fill-rule="evenodd" fill-opacity="1"/><text fill="#000000" fill-opacity="1" font-family="HGMaruGothicMPRO,HGMaruGothicMPRO_MSFontService,sans-serif" font-style="normal" font-variant="normal" font-weight="400" font-stretch="normal" font-size="46" text-anchor="start" direction="ltr" writing-mode="lr-tb" unicode-bidi="normal" text-decoration="none" transform="matrix(1 0 0 1 1535.12 4457)">:</text><path d="M1337.75 4513.6 1429.41 4513.6 1429.41 4559.6 1337.75 4559.6Z" fill="#FFFFFF" fill-rule="evenodd" fill-opacity="1"/><path d="M1429.41 4513.6 1482.12 4513.6 1482.12 4559.6 1429.41 4559.6Z" fill="#FFFFFF" fill-rule="evenodd" fill-opacity="1"/><path d="M1482.12 4513.6 1711.29 4513.6 1711.29 4559.6 1482.12 4559.6Z" fill="#FFFFFF" fill-rule="evenodd" fill-opacity="1"/><path d="M1711.29 4513.6 1742.22 4513.6 1742.22 4559.6 1711.29 4559.6Z" fill="#FFFFFF" fill-rule="evenodd" fill-opacity="1"/><text fill="#000000" fill-opacity="1" font-family="HGMaruGothicMPRO,HGMaruGothicMPRO_MSFontService,sans-serif" font-style="normal" font-variant="normal" font-weight="400" font-stretch="normal" font-size="46" text-anchor="start" direction="ltr" writing-mode="lr-tb" unicode-bidi="normal" text-decoration="none" transform="matrix(1 0 0 1 1337.75 4549)">要素</text><text fill="#000000" fill-opacity="1" font-family="HGMaruGothicMPRO,HGMaruGothicMPRO_MSFontService,sans-serif" font-style="normal" font-variant="normal" font-weight="400" font-stretch="normal" font-size="46" text-anchor="start" direction="ltr" writing-mode="lr-tb" unicode-bidi="normal" text-decoration="none" transform="matrix(1 0 0 1 1429.41 4549)">N </text><text fill="#000000" fill-opacity="1" font-family="HGMaruGothicMPRO,HGMaruGothicMPRO_MSFontService,sans-serif" font-style="normal" font-variant="normal" font-weight="400" font-stretch="normal" font-size="46" text-anchor="start" direction="ltr" writing-mode="lr-tb" unicode-bidi="normal" text-decoration="none" transform="matrix(1 0 0 1 1482.12 4549)">構成ノード</text><text fill="#000000" fill-opacity="1" font-family="HGMaruGothicMPRO,HGMaruGothicMPRO_MSFontService,sans-serif" font-style="normal" font-variant="normal" font-weight="400" font-stretch="normal" font-size="46" text-anchor="start" direction="ltr" writing-mode="lr-tb" unicode-bidi="normal" text-decoration="none" transform="matrix(1 0 0 1 1711.29 4549)">n</text></g></g></svg>