<svg width="926" height="1389" xmlns="http://www.w3.org/2000/svg" xmlns:xlink="http://www.w3.org/1999/xlink" xml:space="preserve" overflow="hidden"><g transform="translate(-2910 -3015)"><g><path d="M2914.99 3017.87 3831.65 3017.87 3831.65 3109.54 2914.99 3109.54Z" fill="#FFFFFF" fill-rule="evenodd" fill-opacity="1"/><path d="M2914.99 3109.54 3831.65 3109.54 3831.65 3201.21 2914.99 3201.21Z" fill="#FFFFFF" fill-rule="evenodd" fill-opacity="1"/><path d="M2914.99 3201.21 3831.65 3201.21 3831.65 3292.87 2914.99 3292.87Z" fill="#FFFFFF" fill-rule="evenodd" fill-opacity="1"/><path d="M2914.99 3292.87 3831.65 3292.87 3831.65 3384.54 2914.99 3384.54Z" fill="#FFFFFF" fill-rule="evenodd" fill-opacity="1"/><path d="M2914.99 3384.54 3831.65 3384.54 3831.65 3476.21 2914.99 3476.21Z" fill="#FFFFFF" fill-rule="evenodd" fill-opacity="1"/><path d="M2914.99 3476.21 3831.65 3476.21 3831.65 3567.87 2914.99 3567.87Z" fill="#FFFFFF" fill-rule="evenodd" fill-opacity="1"/><path d="M2914.99 3567.87 3831.65 3567.87 3831.65 3659.54 2914.99 3659.54Z" fill="#FFFFFF" fill-rule="evenodd" fill-opacity="1"/><path d="M2914.99 3659.54 3831.65 3659.54 3831.65 3751.21 2914.99 3751.21Z" fill="#FFFFFF" fill-rule="evenodd" fill-opacity="1"/><path d="M2914.99 3751.21 3831.65 3751.21 3831.65 3842.87 2914.99 3842.87Z" fill="#FFFFFF" fill-rule="evenodd" fill-opacity="1"/><path d="M2914.99 3842.87 3831.65 3842.87 3831.65 3934.54 2914.99 3934.54Z" fill="#FFFFFF" fill-rule="evenodd" fill-opacity="1"/><path d="M2914.99 3934.54 3831.65 3934.54 3831.65 4026.21 2914.99 4026.21Z" fill="#FFFFFF" fill-rule="evenodd" fill-opacity="1"/><path d="M2914.99 4026.21 3831.65 4026.21 3831.65 4117.87 2914.99 4117.87Z" fill="#FFFFFF" fill-rule="evenodd" fill-opacity="1"/><path d="M2914.99 4117.87 3831.65 4117.87 3831.65 4209.54 2914.99 4209.54Z" fill="#FFFFFF" fill-rule="evenodd" fill-opacity="1"/><path d="M2914.99 4209.54 3831.65 4209.54 3831.65 4301.21 2914.99 4301.21Z" fill="#FFFFFF" fill-rule="evenodd" fill-opacity="1"/><path d="M2914.99 4301.21 3831.65 4301.21 3831.65 4392.87 2914.99 4392.87Z" fill="#FFFFFF" fill-rule="evenodd" fill-opacity="1"/><path d="M2913.84 3109.54 3832.8 3109.54" stroke="#000000" stroke-width="2.29167" stroke-linecap="butt" stroke-linejoin="round" stroke-miterlimit="10" stroke-opacity="1" fill="none" fill-rule="evenodd"/><path d="M2913.84 3201.21 3832.8 3201.21" stroke="#000000" stroke-width="2.29167" stroke-linecap="butt" stroke-linejoin="round" stroke-miterlimit="10" stroke-opacity="1" fill="none" fill-rule="evenodd"/><path d="M2913.84 3292.87 3832.8 3292.87" stroke="#000000" stroke-width="2.29167" stroke-linecap="butt" stroke-linejoin="round" stroke-miterlimit="10" stroke-opacity="1" fill="none" fill-rule="evenodd"/><path d="M2913.84 3384.54 3832.8 3384.54" stroke="#000000" stroke-width="2.29167" stroke-linecap="butt" stroke-linejoin="round" stroke-miterlimit="10" stroke-opacity="1" fill="none" fill-rule="evenodd"/><path d="M2913.84 3476.21 3832.8 3476.21" stroke="#000000" stroke-width="2.29167" stroke-linecap="butt" stroke-linejoin="round" stroke-miterlimit="10" stroke-opacity="1" fill="none" fill-rule="evenodd"/><path d="M2913.84 3567.87 3832.8 3567.87" stroke="#000000" stroke-width="2.29167" stroke-linecap="butt" stroke-linejoin="round" stroke-miterlimit="10" stroke-opacity="1" fill="none" fill-rule="evenodd"/><path d="M2913.84 3659.54 3832.8 3659.54" stroke="#000000" stroke-width="2.29167" stroke-linecap="butt" stroke-linejoin="round" stroke-miterlimit="10" stroke-opacity="1" fill="none" fill-rule="evenodd"/><path d="M2913.84 3751.21 3832.8 3751.21" stroke="#000000" stroke-width="2.29167" stroke-linecap="butt" stroke-linejoin="round" stroke-miterlimit="10" stroke-opacity="1" fill="none" fill-rule="evenodd"/><path d="M2913.84 3842.87 3832.8 3842.87" stroke="#000000" stroke-width="2.29167" stroke-linecap="butt" stroke-linejoin="round" stroke-miterlimit="10" stroke-opacity="1" fill="none" fill-rule="evenodd"/><path d="M2913.84 3934.54 3832.8 3934.54" stroke="#000000" stroke-width="2.29167" stroke-linecap="butt" stroke-linejoin="round" stroke-miterlimit="10" stroke-opacity="1" fill="none" fill-rule="evenodd"/><path d="M2913.84 4026.21 3832.8 4026.21" stroke="#000000" stroke-width="2.29167" stroke-linecap="butt" stroke-linejoin="round" stroke-miterlimit="10" stroke-opacity="1" fill="none" fill-rule="evenodd"/><path d="M2913.84 4117.87 3832.8 4117.87" stroke="#000000" stroke-width="2.29167" stroke-linecap="butt" stroke-linejoin="round" stroke-miterlimit="10" stroke-opacity="1" fill="none" fill-rule="evenodd"/><path d="M2913.84 4209.54 3832.8 4209.54" stroke="#000000" stroke-width="2.29167" stroke-linecap="butt" stroke-linejoin="round" stroke-miterlimit="10" stroke-opacity="1" fill="none" fill-rule="evenodd"/><path d="M2913.84 4301.21 3832.8 4301.21" stroke="#000000" stroke-width="2.29167" stroke-linecap="butt" stroke-linejoin="round" stroke-miterlimit="10" stroke-opacity="1" fill="none" fill-rule="evenodd"/><path d="M2914.99 3016.73 2914.99 4394.02" stroke="#000000" stroke-width="2.29167" stroke-linecap="butt" stroke-linejoin="round" stroke-miterlimit="10" stroke-opacity="1" fill="none" fill-rule="evenodd"/><path d="M3831.65 3016.73 3831.65 4394.02" stroke="#000000" stroke-width="2.29167" stroke-linecap="butt" stroke-linejoin="round" stroke-miterlimit="10" stroke-opacity="1" fill="none" fill-rule="evenodd"/><path d="M2913.84 3017.87 3832.8 3017.87" stroke="#000000" stroke-width="2.29167" stroke-linecap="butt" stroke-linejoin="round" stroke-miterlimit="10" stroke-opacity="1" fill="none" fill-rule="evenodd"/><path d="M2913.84 4392.87 3832.8 4392.87" stroke="#000000" stroke-width="2.29167" stroke-linecap="butt" stroke-linejoin="round" stroke-miterlimit="10" stroke-opacity="1" fill="none" fill-rule="evenodd"/><path d="M3209.46 3046.93 3346.96 3046.93 3346.96 3092.93 3209.46 3092.93Z" fill="#FFFFFF" fill-rule="evenodd" fill-opacity="1"/><path d="M3346.96 3046.93 3411.7 3046.93 3411.7 3092.93 3346.96 3092.93Z" fill="#FFFFFF" fill-rule="evenodd" fill-opacity="1"/><path d="M3411.7 3046.93 3503.37 3046.93 3503.37 3092.93 3411.7 3092.93Z" fill="#FFFFFF" fill-rule="evenodd" fill-opacity="1"/><path d="M3503.37 3046.93 3537.17 3046.93 3537.17 3092.93 3503.37 3092.93Z" fill="#FFFFFF" fill-rule="evenodd" fill-opacity="1"/><text fill="#000000" fill-opacity="1" font-family="HGMaruGothicMPRO,HGMaruGothicMPRO_MSFontService,sans-serif" font-style="normal" font-variant="normal" font-weight="400" font-stretch="normal" font-size="46" text-anchor="start" direction="ltr" writing-mode="lr-tb" unicode-bidi="normal" text-decoration="none" transform="matrix(1 0 0 1 3209.46 3082)">ノード</text><text fill="#000000" fill-opacity="1" font-family="HGMaruGothicMPRO,HGMaruGothicMPRO_MSFontService,sans-serif" font-style="normal" font-variant="normal" font-weight="400" font-stretch="normal" font-size="46" text-anchor="start" direction="ltr" writing-mode="lr-tb" unicode-bidi="normal" text-decoration="none" transform="matrix(1 0 0 1 3346.96 3082)">1  </text><text fill="#000000" fill-opacity="1" font-family="HGMaruGothicMPRO,HGMaruGothicMPRO_MSFontService,sans-serif" font-style="normal" font-variant="normal" font-weight="400" font-stretch="normal" font-size="46" text-anchor="start" direction="ltr" writing-mode="lr-tb" unicode-bidi="normal" text-decoration="none" transform="matrix(1 0 0 1 3411.7 3082)">成分</text><text fill="#000000" fill-opacity="1" font-family="HGMaruGothicMPRO,HGMaruGothicMPRO_MSFontService,sans-serif" font-style="normal" font-variant="normal" font-weight="400" font-stretch="normal" font-size="46" text-anchor="start" direction="ltr" writing-mode="lr-tb" unicode-bidi="normal" text-decoration="none" transform="matrix(1 0 0 1 3503.37 3082)">1</text><path d="M3209.46 3138.6 3346.96 3138.6 3346.96 3184.6 3209.46 3184.6Z" fill="#FFFFFF" fill-rule="evenodd" fill-opacity="1"/><path d="M3346.96 3138.6 3411.7 3138.6 3411.7 3184.6 3346.96 3184.6Z" fill="#FFFFFF" fill-rule="evenodd" fill-opacity="1"/><path d="M3411.7 3138.6 3503.37 3138.6 3503.37 3184.6 3411.7 3184.6Z" fill="#FFFFFF" fill-rule="evenodd" fill-opacity="1"/><path d="M3503.37 3138.6 3537.17 3138.6 3537.17 3184.6 3503.37 3184.6Z" fill="#FFFFFF" fill-rule="evenodd" fill-opacity="1"/><text fill="#000000" fill-opacity="1" font-family="HGMaruGothicMPRO,HGMaruGothicMPRO_MSFontService,sans-serif" font-style="normal" font-variant="normal" font-weight="400" font-stretch="normal" font-size="46" text-anchor="start" direction="ltr" writing-mode="lr-tb" unicode-bidi="normal" text-decoration="none" transform="matrix(1 0 0 1 3209.46 3174)">ノード</text><text fill="#000000" fill-opacity="1" font-family="HGMaruGothicMPRO,HGMaruGothicMPRO_MSFontService,sans-serif" font-style="normal" font-variant="normal" font-weight="400" font-stretch="normal" font-size="46" text-anchor="start" direction="ltr" writing-mode="lr-tb" unicode-bidi="normal" text-decoration="none" transform="matrix(1 0 0 1 3346.96 3174)">2  </text><text fill="#000000" fill-opacity="1" font-family="HGMaruGothicMPRO,HGMaruGothicMPRO_MSFontService,sans-serif" font-style="normal" font-variant="normal" font-weight="400" font-stretch="normal" font-size="46" text-anchor="start" direction="ltr" writing-mode="lr-tb" unicode-bidi="normal" text-decoration="none" transform="matrix(1 0 0 1 3411.7 3174)">成分</text><text fill="#000000" fill-opacity="1" font-family="HGMaruGothicMPRO,HGMaruGothicMPRO_MSFontService,sans-serif" font-style="normal" font-variant="normal" font-weight="400" font-stretch="normal" font-size="46" text-anchor="start" direction="ltr" writing-mode="lr-tb" unicode-bidi="normal" text-decoration="none" transform="matrix(1 0 0 1 3503.37 3174)">1</text><path d="M3209.46 3230.26 3346.96 3230.26 3346.96 3276.26 3209.46 3276.26Z" fill="#FFFFFF" fill-rule="evenodd" fill-opacity="1"/><path d="M3346.96 3230.26 3411.7 3230.26 3411.7 3276.26 3346.96 3276.26Z" fill="#FFFFFF" fill-rule="evenodd" fill-opacity="1"/><path d="M3411.7 3230.26 3503.37 3230.26 3503.37 3276.26 3411.7 3276.26Z" fill="#FFFFFF" fill-rule="evenodd" fill-opacity="1"/><path d="M3503.37 3230.26 3537.17 3230.26 3537.17 3276.26 3503.37 3276.26Z" fill="#FFFFFF" fill-rule="evenodd" fill-opacity="1"/><text fill="#000000" fill-opacity="1" font-family="HGMaruGothicMPRO,HGMaruGothicMPRO_MSFontService,sans-serif" font-style="normal" font-variant="normal" font-weight="400" font-stretch="normal" font-size="46" text-anchor="start" direction="ltr" writing-mode="lr-tb" unicode-bidi="normal" text-decoration="none" transform="matrix(1 0 0 1 3209.46 3265)">ノード</text><text fill="#000000" fill-opacity="1" font-family="HGMaruGothicMPRO,HGMaruGothicMPRO_MSFontService,sans-serif" font-style="normal" font-variant="normal" font-weight="400" font-stretch="normal" font-size="46" text-anchor="start" direction="ltr" writing-mode="lr-tb" unicode-bidi="normal" text-decoration="none" transform="matrix(1 0 0 1 3346.96 3265)">3  </text><text fill="#000000" fill-opacity="1" font-family="HGMaruGothicMPRO,HGMaruGothicMPRO_MSFontService,sans-serif" font-style="normal" font-variant="normal" font-weight="400" font-stretch="normal" font-size="46" text-anchor="start" direction="ltr" writing-mode="lr-tb" unicode-bidi="normal" text-decoration="none" transform="matrix(1 0 0 1 3411.7 3265)">成分</text><text fill="#000000" fill-opacity="1" font-family="HGMaruGothicMPRO,HGMaruGothicMPRO_MSFontService,sans-serif" font-style="normal" font-variant="normal" font-weight="400" font-stretch="normal" font-size="46" text-anchor="start" direction="ltr" writing-mode="lr-tb" unicode-bidi="normal" text-decoration="none" transform="matrix(1 0 0 1 3503.37 3265)">1</text><path d="M3368.45 3321.93 3378.19 3321.93 3378.19 3367.93 3368.45 3367.93Z" fill="#FFFFFF" fill-rule="evenodd" fill-opacity="1"/><text fill="#000000" fill-opacity="1" font-family="HGMaruGothicMPRO,HGMaruGothicMPRO_MSFontService,sans-serif" font-style="normal" font-variant="normal" font-weight="400" font-stretch="normal" font-size="46" text-anchor="start" direction="ltr" writing-mode="lr-tb" unicode-bidi="normal" text-decoration="none" transform="matrix(1 0 0 1 3368.45 3357)">:</text><path d="M3210.9 3413.6 3348.4 3413.6 3348.4 3459.6 3210.9 3459.6Z" fill="#FFFFFF" fill-rule="evenodd" fill-opacity="1"/><path d="M3348.4 3413.6 3410.27 3413.6 3410.27 3459.6 3348.4 3459.6Z" fill="#FFFFFF" fill-rule="evenodd" fill-opacity="1"/><path d="M3410.27 3413.6 3501.94 3413.6 3501.94 3459.6 3410.27 3459.6Z" fill="#FFFFFF" fill-rule="evenodd" fill-opacity="1"/><path d="M3501.94 3413.6 3535.74 3413.6 3535.74 3459.6 3501.94 3459.6Z" fill="#FFFFFF" fill-rule="evenodd" fill-opacity="1"/><text fill="#000000" fill-opacity="1" font-family="HGMaruGothicMPRO,HGMaruGothicMPRO_MSFontService,sans-serif" font-style="normal" font-variant="normal" font-weight="400" font-stretch="normal" font-size="46" text-anchor="start" direction="ltr" writing-mode="lr-tb" unicode-bidi="normal" text-decoration="none" transform="matrix(1 0 0 1 3210.9 3449)">ノード</text><text fill="#000000" fill-opacity="1" font-family="HGMaruGothicMPRO,HGMaruGothicMPRO_MSFontService,sans-serif" font-style="normal" font-variant="normal" font-weight="400" font-stretch="normal" font-size="46" text-anchor="start" direction="ltr" writing-mode="lr-tb" unicode-bidi="normal" text-decoration="none" transform="matrix(1 0 0 1 3348.4 3449)">n  </text><text fill="#000000" fill-opacity="1" font-family="HGMaruGothicMPRO,HGMaruGothicMPRO_MSFontService,sans-serif" font-style="normal" font-variant="normal" font-weight="400" font-stretch="normal" font-size="46" text-anchor="start" direction="ltr" writing-mode="lr-tb" unicode-bidi="normal" text-decoration="none" transform="matrix(1 0 0 1 3410.27 3449)">成分</text><text fill="#000000" fill-opacity="1" font-family="HGMaruGothicMPRO,HGMaruGothicMPRO_MSFontService,sans-serif" font-style="normal" font-variant="normal" font-weight="400" font-stretch="normal" font-size="46" text-anchor="start" direction="ltr" writing-mode="lr-tb" unicode-bidi="normal" text-decoration="none" transform="matrix(1 0 0 1 3501.94 3449)">1</text><path d="M3209.46 3505.26 3346.96 3505.26 3346.96 3551.26 3209.46 3551.26Z" fill="#FFFFFF" fill-rule="evenodd" fill-opacity="1"/><path d="M3346.96 3505.26 3411.7 3505.26 3411.7 3551.26 3346.96 3551.26Z" fill="#FFFFFF" fill-rule="evenodd" fill-opacity="1"/><path d="M3411.7 3505.26 3503.37 3505.26 3503.37 3551.26 3411.7 3551.26Z" fill="#FFFFFF" fill-rule="evenodd" fill-opacity="1"/><path d="M3503.37 3505.26 3537.17 3505.26 3537.17 3551.26 3503.37 3551.26Z" fill="#FFFFFF" fill-rule="evenodd" fill-opacity="1"/><text fill="#000000" fill-opacity="1" font-family="HGMaruGothicMPRO,HGMaruGothicMPRO_MSFontService,sans-serif" font-style="normal" font-variant="normal" font-weight="400" font-stretch="normal" font-size="46" text-anchor="start" direction="ltr" writing-mode="lr-tb" unicode-bidi="normal" text-decoration="none" transform="matrix(1 0 0 1 3209.46 3540)">ノード</text><text fill="#000000" fill-opacity="1" font-family="HGMaruGothicMPRO,HGMaruGothicMPRO_MSFontService,sans-serif" font-style="normal" font-variant="normal" font-weight="400" font-stretch="normal" font-size="46" text-anchor="start" direction="ltr" writing-mode="lr-tb" unicode-bidi="normal" text-decoration="none" transform="matrix(1 0 0 1 3346.96 3540)">1  </text><text fill="#000000" fill-opacity="1" font-family="HGMaruGothicMPRO,HGMaruGothicMPRO_MSFontService,sans-serif" font-style="normal" font-variant="normal" font-weight="400" font-stretch="normal" font-size="46" text-anchor="start" direction="ltr" writing-mode="lr-tb" unicode-bidi="normal" text-decoration="none" transform="matrix(1 0 0 1 3411.7 3540)">成分</text><text fill="#000000" fill-opacity="1" font-family="HGMaruGothicMPRO,HGMaruGothicMPRO_MSFontService,sans-serif" font-style="normal" font-variant="normal" font-weight="400" font-stretch="normal" font-size="46" text-anchor="start" direction="ltr" writing-mode="lr-tb" unicode-bidi="normal" text-decoration="none" transform="matrix(1 0 0 1 3503.37 3540)">2</text><path d="M3209.46 3596.93 3346.96 3596.93 3346.96 3642.93 3209.46 3642.93Z" fill="#FFFFFF" fill-rule="evenodd" fill-opacity="1"/><path d="M3346.96 3596.93 3411.7 3596.93 3411.7 3642.93 3346.96 3642.93Z" fill="#FFFFFF" fill-rule="evenodd" fill-opacity="1"/><path d="M3411.7 3596.93 3503.37 3596.93 3503.37 3642.93 3411.7 3642.93Z" fill="#FFFFFF" fill-rule="evenodd" fill-opacity="1"/><path d="M3503.37 3596.93 3537.17 3596.93 3537.17 3642.93 3503.37 3642.93Z" fill="#FFFFFF" fill-rule="evenodd" fill-opacity="1"/><text fill="#000000" fill-opacity="1" font-family="HGMaruGothicMPRO,HGMaruGothicMPRO_MSFontService,sans-serif" font-style="normal" font-variant="normal" font-weight="400" font-stretch="normal" font-size="46" text-anchor="start" direction="ltr" writing-mode="lr-tb" unicode-bidi="normal" text-decoration="none" transform="matrix(1 0 0 1 3209.46 3632)">ノード</text><text fill="#000000" fill-opacity="1" font-family="HGMaruGothicMPRO,HGMaruGothicMPRO_MSFontService,sans-serif" font-style="normal" font-variant="normal" font-weight="400" font-stretch="normal" font-size="46" text-anchor="start" direction="ltr" writing-mode="lr-tb" unicode-bidi="normal" text-decoration="none" transform="matrix(1 0 0 1 3346.96 3632)">2  </text><text fill="#000000" fill-opacity="1" font-family="HGMaruGothicMPRO,HGMaruGothicMPRO_MSFontService,sans-serif" font-style="normal" font-variant="normal" font-weight="400" font-stretch="normal" font-size="46" text-anchor="start" direction="ltr" writing-mode="lr-tb" unicode-bidi="normal" text-decoration="none" transform="matrix(1 0 0 1 3411.7 3632)">成分</text><text fill="#000000" fill-opacity="1" font-family="HGMaruGothicMPRO,HGMaruGothicMPRO_MSFontService,sans-serif" font-style="normal" font-variant="normal" font-weight="400" font-stretch="normal" font-size="46" text-anchor="start" direction="ltr" writing-mode="lr-tb" unicode-bidi="normal" text-decoration="none" transform="matrix(1 0 0 1 3503.37 3632)">2</text><path d="M3209.46 3688.6 3346.96 3688.6 3346.96 3734.6 3209.46 3734.6Z" fill="#FFFFFF" fill-rule="evenodd" fill-opacity="1"/><path d="M3346.96 3688.6 3411.7 3688.6 3411.7 3734.6 3346.96 3734.6Z" fill="#FFFFFF" fill-rule="evenodd" fill-opacity="1"/><path d="M3411.7 3688.6 3503.37 3688.6 3503.37 3734.6 3411.7 3734.6Z" fill="#FFFFFF" fill-rule="evenodd" fill-opacity="1"/><path d="M3503.37 3688.6 3537.17 3688.6 3537.17 3734.6 3503.37 3734.6Z" fill="#FFFFFF" fill-rule="evenodd" fill-opacity="1"/><text fill="#000000" fill-opacity="1" font-family="HGMaruGothicMPRO,HGMaruGothicMPRO_MSFontService,sans-serif" font-style="normal" font-variant="normal" font-weight="400" font-stretch="normal" font-size="46" text-anchor="start" direction="ltr" writing-mode="lr-tb" unicode-bidi="normal" text-decoration="none" transform="matrix(1 0 0 1 3209.46 3724)">ノード</text><text fill="#000000" fill-opacity="1" font-family="HGMaruGothicMPRO,HGMaruGothicMPRO_MSFontService,sans-serif" font-style="normal" font-variant="normal" font-weight="400" font-stretch="normal" font-size="46" text-anchor="start" direction="ltr" writing-mode="lr-tb" unicode-bidi="normal" text-decoration="none" transform="matrix(1 0 0 1 3346.96 3724)">3  </text><text fill="#000000" fill-opacity="1" font-family="HGMaruGothicMPRO,HGMaruGothicMPRO_MSFontService,sans-serif" font-style="normal" font-variant="normal" font-weight="400" font-stretch="normal" font-size="46" text-anchor="start" direction="ltr" writing-mode="lr-tb" unicode-bidi="normal" text-decoration="none" transform="matrix(1 0 0 1 3411.7 3724)">成分</text><text fill="#000000" fill-opacity="1" font-family="HGMaruGothicMPRO,HGMaruGothicMPRO_MSFontService,sans-serif" font-style="normal" font-variant="normal" font-weight="400" font-stretch="normal" font-size="46" text-anchor="start" direction="ltr" writing-mode="lr-tb" unicode-bidi="normal" text-decoration="none" transform="matrix(1 0 0 1 3503.37 3724)">2</text><path d="M3368.45 3780.26 3378.19 3780.26 3378.19 3826.26 3368.45 3826.26Z" fill="#FFFFFF" fill-rule="evenodd" fill-opacity="1"/><text fill="#000000" fill-opacity="1" font-family="HGMaruGothicMPRO,HGMaruGothicMPRO_MSFontService,sans-serif" font-style="normal" font-variant="normal" font-weight="400" font-stretch="normal" font-size="46" text-anchor="start" direction="ltr" writing-mode="lr-tb" unicode-bidi="normal" text-decoration="none" transform="matrix(1 0 0 1 3368.45 3815)">:</text><path d="M3210.9 3871.93 3348.4 3871.93 3348.4 3917.93 3210.9 3917.93Z" fill="#FFFFFF" fill-rule="evenodd" fill-opacity="1"/><path d="M3348.4 3871.93 3410.27 3871.93 3410.27 3917.93 3348.4 3917.93Z" fill="#FFFFFF" fill-rule="evenodd" fill-opacity="1"/><path d="M3410.27 3871.93 3501.94 3871.93 3501.94 3917.93 3410.27 3917.93Z" fill="#FFFFFF" fill-rule="evenodd" fill-opacity="1"/><path d="M3501.94 3871.93 3535.74 3871.93 3535.74 3917.93 3501.94 3917.93Z" fill="#FFFFFF" fill-rule="evenodd" fill-opacity="1"/><text fill="#000000" fill-opacity="1" font-family="HGMaruGothicMPRO,HGMaruGothicMPRO_MSFontService,sans-serif" font-style="normal" font-variant="normal" font-weight="400" font-stretch="normal" font-size="46" text-anchor="start" direction="ltr" writing-mode="lr-tb" unicode-bidi="normal" text-decoration="none" transform="matrix(1 0 0 1 3210.9 3907)">ノード</text><text fill="#000000" fill-opacity="1" font-family="HGMaruGothicMPRO,HGMaruGothicMPRO_MSFontService,sans-serif" font-style="normal" font-variant="normal" font-weight="400" font-stretch="normal" font-size="46" text-anchor="start" direction="ltr" writing-mode="lr-tb" unicode-bidi="normal" text-decoration="none" transform="matrix(1 0 0 1 3348.4 3907)">n  </text><text fill="#000000" fill-opacity="1" font-family="HGMaruGothicMPRO,HGMaruGothicMPRO_MSFontService,sans-serif" font-style="normal" font-variant="normal" font-weight="400" font-stretch="normal" font-size="46" text-anchor="start" direction="ltr" writing-mode="lr-tb" unicode-bidi="normal" text-decoration="none" transform="matrix(1 0 0 1 3410.27 3907)">成分</text><text fill="#000000" fill-opacity="1" font-family="HGMaruGothicMPRO,HGMaruGothicMPRO_MSFontService,sans-serif" font-style="normal" font-variant="normal" font-weight="400" font-stretch="normal" font-size="46" text-anchor="start" direction="ltr" writing-mode="lr-tb" unicode-bidi="normal" text-decoration="none" transform="matrix(1 0 0 1 3501.94 3907)">2</text><path d="M3205.17 3963.6 3342.67 3963.6 3342.67 4009.6 3205.17 4009.6Z" fill="#FFFFFF" fill-rule="evenodd" fill-opacity="1"/><path d="M3342.67 3963.6 3407.41 3963.6 3407.41 4009.6 3342.67 4009.6Z" fill="#FFFFFF" fill-rule="evenodd" fill-opacity="1"/><path d="M3407.41 3963.6 3499.07 3963.6 3499.07 4009.6 3407.41 4009.6Z" fill="#FFFFFF" fill-rule="evenodd" fill-opacity="1"/><path d="M3499.07 3963.6 3541.47 3963.6 3541.47 4009.6 3499.07 4009.6Z" fill="#FFFFFF" fill-rule="evenodd" fill-opacity="1"/><text fill="#000000" fill-opacity="1" font-family="HGMaruGothicMPRO,HGMaruGothicMPRO_MSFontService,sans-serif" font-style="normal" font-variant="normal" font-weight="400" font-stretch="normal" font-size="46" text-anchor="start" direction="ltr" writing-mode="lr-tb" unicode-bidi="normal" text-decoration="none" transform="matrix(1 0 0 1 3205.17 3999)">ノード</text><text fill="#000000" fill-opacity="1" font-family="HGMaruGothicMPRO,HGMaruGothicMPRO_MSFontService,sans-serif" font-style="normal" font-variant="normal" font-weight="400" font-stretch="normal" font-size="46" text-anchor="start" direction="ltr" writing-mode="lr-tb" unicode-bidi="normal" text-decoration="none" transform="matrix(1 0 0 1 3342.67 3999)">1  </text><text fill="#000000" fill-opacity="1" font-family="HGMaruGothicMPRO,HGMaruGothicMPRO_MSFontService,sans-serif" font-style="normal" font-variant="normal" font-weight="400" font-stretch="normal" font-size="46" text-anchor="start" direction="ltr" writing-mode="lr-tb" unicode-bidi="normal" text-decoration="none" transform="matrix(1 0 0 1 3407.41 3999)">成分</text><text fill="#000000" fill-opacity="1" font-family="HGMaruGothicMPRO,HGMaruGothicMPRO_MSFontService,sans-serif" font-style="normal" font-variant="normal" font-weight="400" font-stretch="normal" font-size="46" text-anchor="start" direction="ltr" writing-mode="lr-tb" unicode-bidi="normal" text-decoration="none" transform="matrix(1 0 0 1 3499.07 3999)">m</text><path d="M3205.17 4055.26 3342.67 4055.26 3342.67 4101.26 3205.17 4101.26Z" fill="#FFFFFF" fill-rule="evenodd" fill-opacity="1"/><path d="M3342.67 4055.26 3407.41 4055.26 3407.41 4101.26 3342.67 4101.26Z" fill="#FFFFFF" fill-rule="evenodd" fill-opacity="1"/><path d="M3407.41 4055.26 3499.07 4055.26 3499.07 4101.26 3407.41 4101.26Z" fill="#FFFFFF" fill-rule="evenodd" fill-opacity="1"/><path d="M3499.07 4055.26 3541.47 4055.26 3541.47 4101.26 3499.07 4101.26Z" fill="#FFFFFF" fill-rule="evenodd" fill-opacity="1"/><text fill="#000000" fill-opacity="1" font-family="HGMaruGothicMPRO,HGMaruGothicMPRO_MSFontService,sans-serif" font-style="normal" font-variant="normal" font-weight="400" font-stretch="normal" font-size="46" text-anchor="start" direction="ltr" writing-mode="lr-tb" unicode-bidi="normal" text-decoration="none" transform="matrix(1 0 0 1 3205.17 4090)">ノード</text><text fill="#000000" fill-opacity="1" font-family="HGMaruGothicMPRO,HGMaruGothicMPRO_MSFontService,sans-serif" font-style="normal" font-variant="normal" font-weight="400" font-stretch="normal" font-size="46" text-anchor="start" direction="ltr" writing-mode="lr-tb" unicode-bidi="normal" text-decoration="none" transform="matrix(1 0 0 1 3342.67 4090)">2  </text><text fill="#000000" fill-opacity="1" font-family="HGMaruGothicMPRO,HGMaruGothicMPRO_MSFontService,sans-serif" font-style="normal" font-variant="normal" font-weight="400" font-stretch="normal" font-size="46" text-anchor="start" direction="ltr" writing-mode="lr-tb" unicode-bidi="normal" text-decoration="none" transform="matrix(1 0 0 1 3407.41 4090)">成分</text><text fill="#000000" fill-opacity="1" font-family="HGMaruGothicMPRO,HGMaruGothicMPRO_MSFontService,sans-serif" font-style="normal" font-variant="normal" font-weight="400" font-stretch="normal" font-size="46" text-anchor="start" direction="ltr" writing-mode="lr-tb" unicode-bidi="normal" text-decoration="none" transform="matrix(1 0 0 1 3499.07 4090)">m</text><path d="M3205.17 4146.93 3342.67 4146.93 3342.67 4192.93 3205.17 4192.93Z" fill="#FFFFFF" fill-rule="evenodd" fill-opacity="1"/><path d="M3342.67 4146.93 3407.41 4146.93 3407.41 4192.93 3342.67 4192.93Z" fill="#FFFFFF" fill-rule="evenodd" fill-opacity="1"/><path d="M3407.41 4146.93 3499.07 4146.93 3499.07 4192.93 3407.41 4192.93Z" fill="#FFFFFF" fill-rule="evenodd" fill-opacity="1"/><path d="M3499.07 4146.93 3541.47 4146.93 3541.47 4192.93 3499.07 4192.93Z" fill="#FFFFFF" fill-rule="evenodd" fill-opacity="1"/><text fill="#000000" fill-opacity="1" font-family="HGMaruGothicMPRO,HGMaruGothicMPRO_MSFontService,sans-serif" font-style="normal" font-variant="normal" font-weight="400" font-stretch="normal" font-size="46" text-anchor="start" direction="ltr" writing-mode="lr-tb" unicode-bidi="normal" text-decoration="none" transform="matrix(1 0 0 1 3205.17 4182)">ノード</text><text fill="#000000" fill-opacity="1" font-family="HGMaruGothicMPRO,HGMaruGothicMPRO_MSFontService,sans-serif" font-style="normal" font-variant="normal" font-weight="400" font-stretch="normal" font-size="46" text-anchor="start" direction="ltr" writing-mode="lr-tb" unicode-bidi="normal" text-decoration="none" transform="matrix(1 0 0 1 3342.67 4182)">3  </text><text fill="#000000" fill-opacity="1" font-family="HGMaruGothicMPRO,HGMaruGothicMPRO_MSFontService,sans-serif" font-style="normal" font-variant="normal" font-weight="400" font-stretch="normal" font-size="46" text-anchor="start" direction="ltr" writing-mode="lr-tb" unicode-bidi="normal" text-decoration="none" transform="matrix(1 0 0 1 3407.41 4182)">成分</text><text fill="#000000" fill-opacity="1" font-family="HGMaruGothicMPRO,HGMaruGothicMPRO_MSFontService,sans-serif" font-style="normal" font-variant="normal" font-weight="400" font-stretch="normal" font-size="46" text-anchor="start" direction="ltr" writing-mode="lr-tb" unicode-bidi="normal" text-decoration="none" transform="matrix(1 0 0 1 3499.07 4182)">m</text><path d="M3368.45 4238.6 3378.19 4238.6 3378.19 4284.6 3368.45 4284.6Z" fill="#FFFFFF" fill-rule="evenodd" fill-opacity="1"/><text fill="#000000" fill-opacity="1" font-family="HGMaruGothicMPRO,HGMaruGothicMPRO_MSFontService,sans-serif" font-style="normal" font-variant="normal" font-weight="400" font-stretch="normal" font-size="46" text-anchor="start" direction="ltr" writing-mode="lr-tb" unicode-bidi="normal" text-decoration="none" transform="matrix(1 0 0 1 3368.45 4274)">:</text><path d="M3206.6 4330.26 3344.1 4330.26 3344.1 4376.26 3206.6 4376.26Z" fill="#FFFFFF" fill-rule="evenodd" fill-opacity="1"/><path d="M3344.1 4330.26 3405.97 4330.26 3405.97 4376.26 3344.1 4376.26Z" fill="#FFFFFF" fill-rule="evenodd" fill-opacity="1"/><path d="M3405.97 4330.26 3497.64 4330.26 3497.64 4376.26 3405.97 4376.26Z" fill="#FFFFFF" fill-rule="evenodd" fill-opacity="1"/><path d="M3497.64 4330.26 3540.04 4330.26 3540.04 4376.26 3497.64 4376.26Z" fill="#FFFFFF" fill-rule="evenodd" fill-opacity="1"/><text fill="#000000" fill-opacity="1" font-family="HGMaruGothicMPRO,HGMaruGothicMPRO_MSFontService,sans-serif" font-style="normal" font-variant="normal" font-weight="400" font-stretch="normal" font-size="46" text-anchor="start" direction="ltr" writing-mode="lr-tb" unicode-bidi="normal" text-decoration="none" transform="matrix(1 0 0 1 3206.6 4365)">ノード</text><text fill="#000000" fill-opacity="1" font-family="HGMaruGothicMPRO,HGMaruGothicMPRO_MSFontService,sans-serif" font-style="normal" font-variant="normal" font-weight="400" font-stretch="normal" font-size="46" text-anchor="start" direction="ltr" writing-mode="lr-tb" unicode-bidi="normal" text-decoration="none" transform="matrix(1 0 0 1 3344.1 4365)">n  </text><text fill="#000000" fill-opacity="1" font-family="HGMaruGothicMPRO,HGMaruGothicMPRO_MSFontService,sans-serif" font-style="normal" font-variant="normal" font-weight="400" font-stretch="normal" font-size="46" text-anchor="start" direction="ltr" writing-mode="lr-tb" unicode-bidi="normal" text-decoration="none" transform="matrix(1 0 0 1 3405.97 4365)">成分</text><text fill="#000000" fill-opacity="1" font-family="HGMaruGothicMPRO,HGMaruGothicMPRO_MSFontService,sans-serif" font-style="normal" font-variant="normal" font-weight="400" font-stretch="normal" font-size="46" text-anchor="start" direction="ltr" writing-mode="lr-tb" unicode-bidi="normal" text-decoration="none" transform="matrix(1 0 0 1 3497.64 4365)">m</text></g></g></svg>