<svg width="926" height="1302" xmlns="http://www.w3.org/2000/svg" xmlns:xlink="http://www.w3.org/1999/xlink" xml:space="preserve" overflow="hidden"><g transform="translate(-1993 -3015)"><g><path d="M1998.32 3017.87 2914.99 3017.87 2914.99 3109.54 1998.32 3109.54Z" fill="#FFFFFF" fill-rule="evenodd" fill-opacity="1"/><path d="M1998.32 3109.54 2914.99 3109.54 2914.99 3201.21 1998.32 3201.21Z" fill="#FFFFFF" fill-rule="evenodd" fill-opacity="1"/><path d="M1998.32 3201.21 2914.99 3201.21 2914.99 3292.87 1998.32 3292.87Z" fill="#FFFFFF" fill-rule="evenodd" fill-opacity="1"/><path d="M1998.32 3292.87 2914.99 3292.87 2914.99 3384.54 1998.32 3384.54Z" fill="#FFFFFF" fill-rule="evenodd" fill-opacity="1"/><path d="M1998.32 3384.54 2914.99 3384.54 2914.99 3476.21 1998.32 3476.21Z" fill="#FFFFFF" fill-rule="evenodd" fill-opacity="1"/><path d="M1998.32 3476.21 2914.99 3476.21 2914.99 3567.87 1998.32 3567.87Z" fill="#FFFFFF" fill-rule="evenodd" fill-opacity="1"/><path d="M1998.32 3567.87 2914.99 3567.87 2914.99 3659.54 1998.32 3659.54Z" fill="#FFFFFF" fill-rule="evenodd" fill-opacity="1"/><path d="M1998.32 3659.54 2914.99 3659.54 2914.99 3751.21 1998.32 3751.21Z" fill="#FFFFFF" fill-rule="evenodd" fill-opacity="1"/><path d="M1998.32 3751.21 2914.99 3751.21 2914.99 3842.87 1998.32 3842.87Z" fill="#FFFFFF" fill-rule="evenodd" fill-opacity="1"/><path d="M1998.32 3842.87 2914.99 3842.87 2914.99 3934.54 1998.32 3934.54Z" fill="#FFFFFF" fill-rule="evenodd" fill-opacity="1"/><path d="M1998.32 3934.54 2914.99 3934.54 2914.99 4026.21 1998.32 4026.21Z" fill="#FFFFFF" fill-rule="evenodd" fill-opacity="1"/><path d="M1998.32 4026.21 2914.99 4026.21 2914.99 4117.87 1998.32 4117.87Z" fill="#FFFFFF" fill-rule="evenodd" fill-opacity="1"/><path d="M1998.32 4117.87 2914.99 4117.87 2914.99 4209.54 1998.32 4209.54Z" fill="#FFFFFF" fill-rule="evenodd" fill-opacity="1"/><path d="M1998.32 4209.54 2914.99 4209.54 2914.99 4301.21 1998.32 4301.21Z" fill="#FFFFFF" fill-rule="evenodd" fill-opacity="1"/><path d="M1997.17 3109.54 2916.13 3109.54" stroke="#000000" stroke-width="2.29167" stroke-linecap="butt" stroke-linejoin="round" stroke-miterlimit="10" stroke-opacity="1" fill="none" fill-rule="evenodd"/><path d="M1997.17 3201.21 2916.13 3201.21" stroke="#000000" stroke-width="2.29167" stroke-linecap="butt" stroke-linejoin="round" stroke-miterlimit="10" stroke-opacity="1" fill="none" fill-rule="evenodd"/><path d="M1997.17 3292.87 2916.13 3292.87" stroke="#000000" stroke-width="2.29167" stroke-linecap="butt" stroke-linejoin="round" stroke-miterlimit="10" stroke-opacity="1" fill="none" fill-rule="evenodd"/><path d="M1997.17 3384.54 2916.13 3384.54" stroke="#000000" stroke-width="2.29167" stroke-linecap="butt" stroke-linejoin="round" stroke-miterlimit="10" stroke-opacity="1" fill="none" fill-rule="evenodd"/><path d="M1997.17 3476.21 2916.13 3476.21" stroke="#000000" stroke-width="2.29167" stroke-linecap="butt" stroke-linejoin="round" stroke-miterlimit="10" stroke-opacity="1" fill="none" fill-rule="evenodd"/><path d="M1997.17 3567.87 2916.13 3567.87" stroke="#000000" stroke-width="2.29167" stroke-linecap="butt" stroke-linejoin="round" stroke-miterlimit="10" stroke-opacity="1" fill="none" fill-rule="evenodd"/><path d="M1997.17 3659.54 2916.13 3659.54" stroke="#000000" stroke-width="2.29167" stroke-linecap="butt" stroke-linejoin="round" stroke-miterlimit="10" stroke-opacity="1" fill="none" fill-rule="evenodd"/><path d="M1997.17 3751.21 2916.13 3751.21" stroke="#000000" stroke-width="2.29167" stroke-linecap="butt" stroke-linejoin="round" stroke-miterlimit="10" stroke-opacity="1" fill="none" fill-rule="evenodd"/><path d="M1997.17 3842.87 2916.13 3842.87" stroke="#000000" stroke-width="2.29167" stroke-linecap="butt" stroke-linejoin="round" stroke-miterlimit="10" stroke-opacity="1" fill="none" fill-rule="evenodd"/><path d="M1997.17 3934.54 2916.13 3934.54" stroke="#000000" stroke-width="2.29167" stroke-linecap="butt" stroke-linejoin="round" stroke-miterlimit="10" stroke-opacity="1" fill="none" fill-rule="evenodd"/><path d="M1997.17 4026.21 2916.13 4026.21" stroke="#000000" stroke-width="2.29167" stroke-linecap="butt" stroke-linejoin="round" stroke-miterlimit="10" stroke-opacity="1" fill="none" fill-rule="evenodd"/><path d="M1997.17 4117.87 2916.13 4117.87" stroke="#000000" stroke-width="2.29167" stroke-linecap="butt" stroke-linejoin="round" stroke-miterlimit="10" stroke-opacity="1" fill="none" fill-rule="evenodd"/><path d="M1997.17 4209.54 2916.13 4209.54" stroke="#000000" stroke-width="2.29167" stroke-linecap="butt" stroke-linejoin="round" stroke-miterlimit="10" stroke-opacity="1" fill="none" fill-rule="evenodd"/><path d="M1998.32 3016.73 1998.32 4302.35" stroke="#000000" stroke-width="2.29167" stroke-linecap="butt" stroke-linejoin="round" stroke-miterlimit="10" stroke-opacity="1" fill="none" fill-rule="evenodd"/><path d="M2914.99 3016.73 2914.99 4302.35" stroke="#000000" stroke-width="2.29167" stroke-linecap="butt" stroke-linejoin="round" stroke-miterlimit="10" stroke-opacity="1" fill="none" fill-rule="evenodd"/><path d="M1997.17 3017.87 2916.13 3017.87" stroke="#000000" stroke-width="2.29167" stroke-linecap="butt" stroke-linejoin="round" stroke-miterlimit="10" stroke-opacity="1" fill="none" fill-rule="evenodd"/><path d="M1997.17 4301.21 2916.13 4301.21" stroke="#000000" stroke-width="2.29167" stroke-linecap="butt" stroke-linejoin="round" stroke-miterlimit="10" stroke-opacity="1" fill="none" fill-rule="evenodd"/><path d="M2292.8 3046.93 2430.3 3046.93 2430.3 3092.93 2292.8 3092.93Z" fill="#FFFFFF" fill-rule="evenodd" fill-opacity="1"/><path d="M2430.3 3046.93 2528.84 3046.93 2528.84 3092.93 2430.3 3092.93Z" fill="#FFFFFF" fill-rule="evenodd" fill-opacity="1"/><path d="M2528.84 3046.93 2620.51 3046.93 2620.51 3092.93 2528.84 3092.93Z" fill="#FFFFFF" fill-rule="evenodd" fill-opacity="1"/><text fill="#000000" fill-opacity="1" font-family="HGMaruGothicMPRO,HGMaruGothicMPRO_MSFontService,sans-serif" font-style="normal" font-variant="normal" font-weight="400" font-stretch="normal" font-size="46" text-anchor="start" direction="ltr" writing-mode="lr-tb" unicode-bidi="normal" text-decoration="none" transform="matrix(1 0 0 1 2292.8 3082)">ノード</text><text fill="#000000" fill-opacity="1" font-family="HGMaruGothicMPRO,HGMaruGothicMPRO_MSFontService,sans-serif" font-style="normal" font-variant="normal" font-weight="400" font-stretch="normal" font-size="46" text-anchor="start" direction="ltr" writing-mode="lr-tb" unicode-bidi="normal" text-decoration="none" transform="matrix(1 0 0 1 2430.3 3082)">1  X</text><text fill="#000000" fill-opacity="1" font-family="HGMaruGothicMPRO,HGMaruGothicMPRO_MSFontService,sans-serif" font-style="normal" font-variant="normal" font-weight="400" font-stretch="normal" font-size="46" text-anchor="start" direction="ltr" writing-mode="lr-tb" unicode-bidi="normal" text-decoration="none" transform="matrix(1 0 0 1 2528.84 3082)">座標</text><path d="M2292.8 3138.6 2430.3 3138.6 2430.3 3184.6 2292.8 3184.6Z" fill="#FFFFFF" fill-rule="evenodd" fill-opacity="1"/><path d="M2430.3 3138.6 2528.84 3138.6 2528.84 3184.6 2430.3 3184.6Z" fill="#FFFFFF" fill-rule="evenodd" fill-opacity="1"/><path d="M2528.84 3138.6 2620.51 3138.6 2620.51 3184.6 2528.84 3184.6Z" fill="#FFFFFF" fill-rule="evenodd" fill-opacity="1"/><text fill="#000000" fill-opacity="1" font-family="HGMaruGothicMPRO,HGMaruGothicMPRO_MSFontService,sans-serif" font-style="normal" font-variant="normal" font-weight="400" font-stretch="normal" font-size="46" text-anchor="start" direction="ltr" writing-mode="lr-tb" unicode-bidi="normal" text-decoration="none" transform="matrix(1 0 0 1 2292.8 3174)">ノード</text><text fill="#000000" fill-opacity="1" font-family="HGMaruGothicMPRO,HGMaruGothicMPRO_MSFontService,sans-serif" font-style="normal" font-variant="normal" font-weight="400" font-stretch="normal" font-size="46" text-anchor="start" direction="ltr" writing-mode="lr-tb" unicode-bidi="normal" text-decoration="none" transform="matrix(1 0 0 1 2430.3 3174)">1  Y</text><text fill="#000000" fill-opacity="1" font-family="HGMaruGothicMPRO,HGMaruGothicMPRO_MSFontService,sans-serif" font-style="normal" font-variant="normal" font-weight="400" font-stretch="normal" font-size="46" text-anchor="start" direction="ltr" writing-mode="lr-tb" unicode-bidi="normal" text-decoration="none" transform="matrix(1 0 0 1 2528.84 3174)">座標</text><path d="M2293.66 3230.26 2431.16 3230.26 2431.16 3276.26 2293.66 3276.26Z" fill="#FFFFFF" fill-rule="evenodd" fill-opacity="1"/><path d="M2431.16 3230.26 2527.98 3230.26 2527.98 3276.26 2431.16 3276.26Z" fill="#FFFFFF" fill-rule="evenodd" fill-opacity="1"/><path d="M2527.98 3230.26 2619.65 3230.26 2619.65 3276.26 2527.98 3276.26Z" fill="#FFFFFF" fill-rule="evenodd" fill-opacity="1"/><text fill="#000000" fill-opacity="1" font-family="HGMaruGothicMPRO,HGMaruGothicMPRO_MSFontService,sans-serif" font-style="normal" font-variant="normal" font-weight="400" font-stretch="normal" font-size="46" text-anchor="start" direction="ltr" writing-mode="lr-tb" unicode-bidi="normal" text-decoration="none" transform="matrix(1 0 0 1 2293.66 3265)">ノード</text><text fill="#000000" fill-opacity="1" font-family="HGMaruGothicMPRO,HGMaruGothicMPRO_MSFontService,sans-serif" font-style="normal" font-variant="normal" font-weight="400" font-stretch="normal" font-size="46" text-anchor="start" direction="ltr" writing-mode="lr-tb" unicode-bidi="normal" text-decoration="none" transform="matrix(1 0 0 1 2431.16 3265)">1  Z</text><text fill="#000000" fill-opacity="1" font-family="HGMaruGothicMPRO,HGMaruGothicMPRO_MSFontService,sans-serif" font-style="normal" font-variant="normal" font-weight="400" font-stretch="normal" font-size="46" text-anchor="start" direction="ltr" writing-mode="lr-tb" unicode-bidi="normal" text-decoration="none" transform="matrix(1 0 0 1 2527.98 3265)">座標</text><path d="M2292.8 3321.93 2430.3 3321.93 2430.3 3367.93 2292.8 3367.93Z" fill="#FFFFFF" fill-rule="evenodd" fill-opacity="1"/><path d="M2430.3 3321.93 2528.84 3321.93 2528.84 3367.93 2430.3 3367.93Z" fill="#FFFFFF" fill-rule="evenodd" fill-opacity="1"/><path d="M2528.84 3321.93 2620.51 3321.93 2620.51 3367.93 2528.84 3367.93Z" fill="#FFFFFF" fill-rule="evenodd" fill-opacity="1"/><text fill="#000000" fill-opacity="1" font-family="HGMaruGothicMPRO,HGMaruGothicMPRO_MSFontService,sans-serif" font-style="normal" font-variant="normal" font-weight="400" font-stretch="normal" font-size="46" text-anchor="start" direction="ltr" writing-mode="lr-tb" unicode-bidi="normal" text-decoration="none" transform="matrix(1 0 0 1 2292.8 3357)">ノード</text><text fill="#000000" fill-opacity="1" font-family="HGMaruGothicMPRO,HGMaruGothicMPRO_MSFontService,sans-serif" font-style="normal" font-variant="normal" font-weight="400" font-stretch="normal" font-size="46" text-anchor="start" direction="ltr" writing-mode="lr-tb" unicode-bidi="normal" text-decoration="none" transform="matrix(1 0 0 1 2430.3 3357)">2  X</text><text fill="#000000" fill-opacity="1" font-family="HGMaruGothicMPRO,HGMaruGothicMPRO_MSFontService,sans-serif" font-style="normal" font-variant="normal" font-weight="400" font-stretch="normal" font-size="46" text-anchor="start" direction="ltr" writing-mode="lr-tb" unicode-bidi="normal" text-decoration="none" transform="matrix(1 0 0 1 2528.84 3357)">座標</text><path d="M2292.8 3413.6 2430.3 3413.6 2430.3 3459.6 2292.8 3459.6Z" fill="#FFFFFF" fill-rule="evenodd" fill-opacity="1"/><path d="M2430.3 3413.6 2528.84 3413.6 2528.84 3459.6 2430.3 3459.6Z" fill="#FFFFFF" fill-rule="evenodd" fill-opacity="1"/><path d="M2528.84 3413.6 2620.51 3413.6 2620.51 3459.6 2528.84 3459.6Z" fill="#FFFFFF" fill-rule="evenodd" fill-opacity="1"/><text fill="#000000" fill-opacity="1" font-family="HGMaruGothicMPRO,HGMaruGothicMPRO_MSFontService,sans-serif" font-style="normal" font-variant="normal" font-weight="400" font-stretch="normal" font-size="46" text-anchor="start" direction="ltr" writing-mode="lr-tb" unicode-bidi="normal" text-decoration="none" transform="matrix(1 0 0 1 2292.8 3449)">ノード</text><text fill="#000000" fill-opacity="1" font-family="HGMaruGothicMPRO,HGMaruGothicMPRO_MSFontService,sans-serif" font-style="normal" font-variant="normal" font-weight="400" font-stretch="normal" font-size="46" text-anchor="start" direction="ltr" writing-mode="lr-tb" unicode-bidi="normal" text-decoration="none" transform="matrix(1 0 0 1 2430.3 3449)">2  Y</text><text fill="#000000" fill-opacity="1" font-family="HGMaruGothicMPRO,HGMaruGothicMPRO_MSFontService,sans-serif" font-style="normal" font-variant="normal" font-weight="400" font-stretch="normal" font-size="46" text-anchor="start" direction="ltr" writing-mode="lr-tb" unicode-bidi="normal" text-decoration="none" transform="matrix(1 0 0 1 2528.84 3449)">座標</text><path d="M2293.66 3505.26 2431.16 3505.26 2431.16 3551.26 2293.66 3551.26Z" fill="#FFFFFF" fill-rule="evenodd" fill-opacity="1"/><path d="M2431.16 3505.26 2527.98 3505.26 2527.98 3551.26 2431.16 3551.26Z" fill="#FFFFFF" fill-rule="evenodd" fill-opacity="1"/><path d="M2527.98 3505.26 2619.65 3505.26 2619.65 3551.26 2527.98 3551.26Z" fill="#FFFFFF" fill-rule="evenodd" fill-opacity="1"/><text fill="#000000" fill-opacity="1" font-family="HGMaruGothicMPRO,HGMaruGothicMPRO_MSFontService,sans-serif" font-style="normal" font-variant="normal" font-weight="400" font-stretch="normal" font-size="46" text-anchor="start" direction="ltr" writing-mode="lr-tb" unicode-bidi="normal" text-decoration="none" transform="matrix(1 0 0 1 2293.66 3540)">ノード</text><text fill="#000000" fill-opacity="1" font-family="HGMaruGothicMPRO,HGMaruGothicMPRO_MSFontService,sans-serif" font-style="normal" font-variant="normal" font-weight="400" font-stretch="normal" font-size="46" text-anchor="start" direction="ltr" writing-mode="lr-tb" unicode-bidi="normal" text-decoration="none" transform="matrix(1 0 0 1 2431.16 3540)">2  Z</text><text fill="#000000" fill-opacity="1" font-family="HGMaruGothicMPRO,HGMaruGothicMPRO_MSFontService,sans-serif" font-style="normal" font-variant="normal" font-weight="400" font-stretch="normal" font-size="46" text-anchor="start" direction="ltr" writing-mode="lr-tb" unicode-bidi="normal" text-decoration="none" transform="matrix(1 0 0 1 2527.98 3540)">座標</text><path d="M2292.8 3596.93 2430.3 3596.93 2430.3 3642.93 2292.8 3642.93Z" fill="#FFFFFF" fill-rule="evenodd" fill-opacity="1"/><path d="M2430.3 3596.93 2528.84 3596.93 2528.84 3642.93 2430.3 3642.93Z" fill="#FFFFFF" fill-rule="evenodd" fill-opacity="1"/><path d="M2528.84 3596.93 2620.51 3596.93 2620.51 3642.93 2528.84 3642.93Z" fill="#FFFFFF" fill-rule="evenodd" fill-opacity="1"/><text fill="#000000" fill-opacity="1" font-family="HGMaruGothicMPRO,HGMaruGothicMPRO_MSFontService,sans-serif" font-style="normal" font-variant="normal" font-weight="400" font-stretch="normal" font-size="46" text-anchor="start" direction="ltr" writing-mode="lr-tb" unicode-bidi="normal" text-decoration="none" transform="matrix(1 0 0 1 2292.8 3632)">ノード</text><text fill="#000000" fill-opacity="1" font-family="HGMaruGothicMPRO,HGMaruGothicMPRO_MSFontService,sans-serif" font-style="normal" font-variant="normal" font-weight="400" font-stretch="normal" font-size="46" text-anchor="start" direction="ltr" writing-mode="lr-tb" unicode-bidi="normal" text-decoration="none" transform="matrix(1 0 0 1 2430.3 3632)">3  X</text><text fill="#000000" fill-opacity="1" font-family="HGMaruGothicMPRO,HGMaruGothicMPRO_MSFontService,sans-serif" font-style="normal" font-variant="normal" font-weight="400" font-stretch="normal" font-size="46" text-anchor="start" direction="ltr" writing-mode="lr-tb" unicode-bidi="normal" text-decoration="none" transform="matrix(1 0 0 1 2528.84 3632)">座標</text><path d="M2292.8 3688.6 2430.3 3688.6 2430.3 3734.6 2292.8 3734.6Z" fill="#FFFFFF" fill-rule="evenodd" fill-opacity="1"/><path d="M2430.3 3688.6 2528.84 3688.6 2528.84 3734.6 2430.3 3734.6Z" fill="#FFFFFF" fill-rule="evenodd" fill-opacity="1"/><path d="M2528.84 3688.6 2620.51 3688.6 2620.51 3734.6 2528.84 3734.6Z" fill="#FFFFFF" fill-rule="evenodd" fill-opacity="1"/><text fill="#000000" fill-opacity="1" font-family="HGMaruGothicMPRO,HGMaruGothicMPRO_MSFontService,sans-serif" font-style="normal" font-variant="normal" font-weight="400" font-stretch="normal" font-size="46" text-anchor="start" direction="ltr" writing-mode="lr-tb" unicode-bidi="normal" text-decoration="none" transform="matrix(1 0 0 1 2292.8 3724)">ノード</text><text fill="#000000" fill-opacity="1" font-family="HGMaruGothicMPRO,HGMaruGothicMPRO_MSFontService,sans-serif" font-style="normal" font-variant="normal" font-weight="400" font-stretch="normal" font-size="46" text-anchor="start" direction="ltr" writing-mode="lr-tb" unicode-bidi="normal" text-decoration="none" transform="matrix(1 0 0 1 2430.3 3724)">3  Y</text><text fill="#000000" fill-opacity="1" font-family="HGMaruGothicMPRO,HGMaruGothicMPRO_MSFontService,sans-serif" font-style="normal" font-variant="normal" font-weight="400" font-stretch="normal" font-size="46" text-anchor="start" direction="ltr" writing-mode="lr-tb" unicode-bidi="normal" text-decoration="none" transform="matrix(1 0 0 1 2528.84 3724)">座標</text><path d="M2293.66 3780.26 2431.16 3780.26 2431.16 3826.26 2293.66 3826.26Z" fill="#FFFFFF" fill-rule="evenodd" fill-opacity="1"/><path d="M2431.16 3780.26 2527.98 3780.26 2527.98 3826.26 2431.16 3826.26Z" fill="#FFFFFF" fill-rule="evenodd" fill-opacity="1"/><path d="M2527.98 3780.26 2619.65 3780.26 2619.65 3826.26 2527.98 3826.26Z" fill="#FFFFFF" fill-rule="evenodd" fill-opacity="1"/><text fill="#000000" fill-opacity="1" font-family="HGMaruGothicMPRO,HGMaruGothicMPRO_MSFontService,sans-serif" font-style="normal" font-variant="normal" font-weight="400" font-stretch="normal" font-size="46" text-anchor="start" direction="ltr" writing-mode="lr-tb" unicode-bidi="normal" text-decoration="none" transform="matrix(1 0 0 1 2293.66 3815)">ノード</text><text fill="#000000" fill-opacity="1" font-family="HGMaruGothicMPRO,HGMaruGothicMPRO_MSFontService,sans-serif" font-style="normal" font-variant="normal" font-weight="400" font-stretch="normal" font-size="46" text-anchor="start" direction="ltr" writing-mode="lr-tb" unicode-bidi="normal" text-decoration="none" transform="matrix(1 0 0 1 2431.16 3815)">3  Z</text><text fill="#000000" fill-opacity="1" font-family="HGMaruGothicMPRO,HGMaruGothicMPRO_MSFontService,sans-serif" font-style="normal" font-variant="normal" font-weight="400" font-stretch="normal" font-size="46" text-anchor="start" direction="ltr" writing-mode="lr-tb" unicode-bidi="normal" text-decoration="none" transform="matrix(1 0 0 1 2527.98 3815)">座標</text><path d="M2451.78 3871.93 2461.52 3871.93 2461.52 3917.93 2451.78 3917.93Z" fill="#FFFFFF" fill-rule="evenodd" fill-opacity="1"/><text fill="#000000" fill-opacity="1" font-family="HGMaruGothicMPRO,HGMaruGothicMPRO_MSFontService,sans-serif" font-style="normal" font-variant="normal" font-weight="400" font-stretch="normal" font-size="46" text-anchor="start" direction="ltr" writing-mode="lr-tb" unicode-bidi="normal" text-decoration="none" transform="matrix(1 0 0 1 2451.78 3907)">:</text><path d="M2451.78 3963.6 2461.52 3963.6 2461.52 4009.6 2451.78 4009.6Z" fill="#FFFFFF" fill-rule="evenodd" fill-opacity="1"/><text fill="#000000" fill-opacity="1" font-family="HGMaruGothicMPRO,HGMaruGothicMPRO_MSFontService,sans-serif" font-style="normal" font-variant="normal" font-weight="400" font-stretch="normal" font-size="46" text-anchor="start" direction="ltr" writing-mode="lr-tb" unicode-bidi="normal" text-decoration="none" transform="matrix(1 0 0 1 2451.78 3999)">:</text><path d="M2288.5 4055.26 2426 4055.26 2426 4101.26 2288.5 4101.26Z" fill="#FFFFFF" fill-rule="evenodd" fill-opacity="1"/><path d="M2426 4055.26 2533.14 4055.26 2533.14 4101.26 2426 4101.26Z" fill="#FFFFFF" fill-rule="evenodd" fill-opacity="1"/><path d="M2533.14 4055.26 2624.8 4055.26 2624.8 4101.26 2533.14 4101.26Z" fill="#FFFFFF" fill-rule="evenodd" fill-opacity="1"/><text fill="#000000" fill-opacity="1" font-family="HGMaruGothicMPRO,HGMaruGothicMPRO_MSFontService,sans-serif" font-style="normal" font-variant="normal" font-weight="400" font-stretch="normal" font-size="46" text-anchor="start" direction="ltr" writing-mode="lr-tb" unicode-bidi="normal" text-decoration="none" transform="matrix(1 0 0 1 2288.5 4090)">ノード</text><text fill="#000000" fill-opacity="1" font-family="HGMaruGothicMPRO,HGMaruGothicMPRO_MSFontService,sans-serif" font-style="normal" font-variant="normal" font-weight="400" font-stretch="normal" font-size="46" text-anchor="start" direction="ltr" writing-mode="lr-tb" unicode-bidi="normal" text-decoration="none" transform="matrix(1 0 0 1 2426 4090)">m  X</text><text fill="#000000" fill-opacity="1" font-family="HGMaruGothicMPRO,HGMaruGothicMPRO_MSFontService,sans-serif" font-style="normal" font-variant="normal" font-weight="400" font-stretch="normal" font-size="46" text-anchor="start" direction="ltr" writing-mode="lr-tb" unicode-bidi="normal" text-decoration="none" transform="matrix(1 0 0 1 2533.14 4090)">座標</text><path d="M2288.5 4146.93 2426 4146.93 2426 4192.93 2288.5 4192.93Z" fill="#FFFFFF" fill-rule="evenodd" fill-opacity="1"/><path d="M2426 4146.93 2533.14 4146.93 2533.14 4192.93 2426 4192.93Z" fill="#FFFFFF" fill-rule="evenodd" fill-opacity="1"/><path d="M2533.14 4146.93 2624.8 4146.93 2624.8 4192.93 2533.14 4192.93Z" fill="#FFFFFF" fill-rule="evenodd" fill-opacity="1"/><text fill="#000000" fill-opacity="1" font-family="HGMaruGothicMPRO,HGMaruGothicMPRO_MSFontService,sans-serif" font-style="normal" font-variant="normal" font-weight="400" font-stretch="normal" font-size="46" text-anchor="start" direction="ltr" writing-mode="lr-tb" unicode-bidi="normal" text-decoration="none" transform="matrix(1 0 0 1 2288.5 4182)">ノード</text><text fill="#000000" fill-opacity="1" font-family="HGMaruGothicMPRO,HGMaruGothicMPRO_MSFontService,sans-serif" font-style="normal" font-variant="normal" font-weight="400" font-stretch="normal" font-size="46" text-anchor="start" direction="ltr" writing-mode="lr-tb" unicode-bidi="normal" text-decoration="none" transform="matrix(1 0 0 1 2426 4182)">m  Y</text><text fill="#000000" fill-opacity="1" font-family="HGMaruGothicMPRO,HGMaruGothicMPRO_MSFontService,sans-serif" font-style="normal" font-variant="normal" font-weight="400" font-stretch="normal" font-size="46" text-anchor="start" direction="ltr" writing-mode="lr-tb" unicode-bidi="normal" text-decoration="none" transform="matrix(1 0 0 1 2533.14 4182)">座標</text><path d="M2289.36 4238.6 2426.86 4238.6 2426.86 4284.6 2289.36 4284.6Z" fill="#FFFFFF" fill-rule="evenodd" fill-opacity="1"/><path d="M2426.86 4238.6 2532.28 4238.6 2532.28 4284.6 2426.86 4284.6Z" fill="#FFFFFF" fill-rule="evenodd" fill-opacity="1"/><path d="M2532.28 4238.6 2623.94 4238.6 2623.94 4284.6 2532.28 4284.6Z" fill="#FFFFFF" fill-rule="evenodd" fill-opacity="1"/><text fill="#000000" fill-opacity="1" font-family="HGMaruGothicMPRO,HGMaruGothicMPRO_MSFontService,sans-serif" font-style="normal" font-variant="normal" font-weight="400" font-stretch="normal" font-size="46" text-anchor="start" direction="ltr" writing-mode="lr-tb" unicode-bidi="normal" text-decoration="none" transform="matrix(1 0 0 1 2289.36 4274)">ノード</text><text fill="#000000" fill-opacity="1" font-family="HGMaruGothicMPRO,HGMaruGothicMPRO_MSFontService,sans-serif" font-style="normal" font-variant="normal" font-weight="400" font-stretch="normal" font-size="46" text-anchor="start" direction="ltr" writing-mode="lr-tb" unicode-bidi="normal" text-decoration="none" transform="matrix(1 0 0 1 2426.86 4274)">m  Z</text><text fill="#000000" fill-opacity="1" font-family="HGMaruGothicMPRO,HGMaruGothicMPRO_MSFontService,sans-serif" font-style="normal" font-variant="normal" font-weight="400" font-stretch="normal" font-size="46" text-anchor="start" direction="ltr" writing-mode="lr-tb" unicode-bidi="normal" text-decoration="none" transform="matrix(1 0 0 1 2532.28 4274)">座標</text></g></g></svg>