<svg width="2076" height="578" xmlns="http://www.w3.org/2000/svg" xmlns:xlink="http://www.w3.org/1999/xlink" xml:space="preserve" overflow="hidden"><defs><clipPath id="clip0"><rect x="2384" y="994" width="207" height="385"/></clipPath><clipPath id="clip1"><rect x="2384" y="994" width="207" height="385"/></clipPath></defs><g transform="translate(-1251 -902)"><g><path d="M1859 1186 2397.3 1186" stroke="#156082" stroke-width="13.75" stroke-linecap="butt" stroke-linejoin="miter" stroke-miterlimit="8" stroke-opacity="1" fill="none" fill-rule="evenodd"/><g><g><g><path d="M58.6568 162.975 45.6219 162.975 45.6219 384.645 358.458 384.645 358.458 162.975 58.6568 162.975ZM345.423 371.61 58.6568 371.61 58.6568 176.009 345.423 176.009Z" fill="#000000" fill-rule="nonzero" fill-opacity="1" transform="matrix(1.00052 0 0 1 1253 877.306)"/><path d="M364.975 130.348 39.1045 130.348C24.7245 130.391 13.0778 142.038 13.0348 156.418L13.0348 391.169C13.0814 405.548 24.7259 417.192 39.1045 417.239L169.453 417.239 169.453 469.378 104.279 469.378 104.279 482.413 299.801 482.413 299.801 469.378 234.627 469.378 234.627 417.239 364.975 417.239C379.354 417.192 390.999 405.548 391.045 391.169L391.045 156.451C391.02 142.058 379.368 130.391 364.975 130.348ZM221.592 469.404 182.488 469.404 182.488 417.265 221.592 417.265ZM378.01 391.195C378.01 398.394 372.174 404.23 364.975 404.23L39.1045 404.23C31.9056 404.23 26.0697 398.394 26.0697 391.195L26.0697 156.451C26.0697 149.251 31.9056 143.416 39.1045 143.416L364.975 143.416C372.174 143.416 378.01 149.251 378.01 156.451Z" fill="#000000" fill-rule="nonzero" fill-opacity="1" transform="matrix(1.00052 0 0 1 1253 877.306)"/><path d="M586.568 130.348 456.219 130.348C441.822 130.348 430.15 142.02 430.15 156.418L430.15 456.219C430.15 470.617 441.822 482.289 456.219 482.289L586.568 482.289C600.965 482.289 612.637 470.617 612.637 456.219L612.637 156.418C612.637 142.02 600.965 130.348 586.568 130.348ZM599.602 456.219C599.602 463.418 593.767 469.254 586.568 469.254L456.219 469.254C449.02 469.254 443.184 463.418 443.184 456.219L443.184 156.418C443.184 149.219 449.02 143.383 456.219 143.383L586.568 143.383C593.767 143.383 599.602 149.219 599.602 156.418Z" fill="#000000" fill-rule="nonzero" fill-opacity="1" transform="matrix(1.00052 0 0 1 1253 877.306)"/><path d="M469.254 182.488 573.533 182.488 573.533 195.523 469.254 195.523Z" fill="#000000" fill-rule="nonzero" fill-opacity="1" transform="matrix(1.00052 0 0 1 1253 877.306)"/><path d="M469.254 221.592 573.533 221.592 573.533 234.627 469.254 234.627Z" fill="#000000" fill-rule="nonzero" fill-opacity="1" transform="matrix(1.00052 0 0 1 1253 877.306)"/><path d="M531.169 420.373C531.169 425.773 526.793 430.15 521.393 430.15 515.994 430.15 511.617 425.773 511.617 420.373 511.617 414.974 515.994 410.597 521.393 410.597 526.793 410.597 531.169 414.974 531.169 420.373Z" fill="#000000" fill-rule="nonzero" fill-opacity="1" transform="matrix(1.00052 0 0 1 1253 877.306)"/></g></g></g><path d="M2572 1186 2636.3 1186" stroke="#156082" stroke-width="13.75" stroke-linecap="butt" stroke-linejoin="miter" stroke-miterlimit="8" stroke-opacity="1" fill="none" fill-rule="evenodd"/><g clip-path="url(#clip0)"><g clip-path="url(#clip1)"><g><path d="M58.6568 162.975 45.6219 162.975 45.6219 384.645 358.458 384.645 358.458 162.975 58.6568 162.975ZM345.423 371.61 58.6568 371.61 58.6568 176.009 345.423 176.009Z" fill="#000000" fill-rule="nonzero" fill-opacity="1" transform="matrix(1.0021 0 0 1 1963.01 877.306)"/><path d="M364.975 130.348 39.1045 130.348C24.7245 130.391 13.0778 142.038 13.0348 156.418L13.0348 391.169C13.0814 405.548 24.7259 417.192 39.1045 417.239L169.453 417.239 169.453 469.378 104.279 469.378 104.279 482.413 299.801 482.413 299.801 469.378 234.627 469.378 234.627 417.239 364.975 417.239C379.354 417.192 390.999 405.548 391.045 391.169L391.045 156.451C391.02 142.058 379.368 130.391 364.975 130.348ZM221.592 469.404 182.488 469.404 182.488 417.265 221.592 417.265ZM378.01 391.195C378.01 398.394 372.174 404.23 364.975 404.23L39.1045 404.23C31.9056 404.23 26.0697 398.394 26.0697 391.195L26.0697 156.451C26.0697 149.251 31.9056 143.416 39.1045 143.416L364.975 143.416C372.174 143.416 378.01 149.251 378.01 156.451Z" fill="#000000" fill-rule="nonzero" fill-opacity="1" transform="matrix(1.0021 0 0 1 1963.01 877.306)"/><path d="M586.568 130.348 456.219 130.348C441.822 130.348 430.15 142.02 430.15 156.418L430.15 456.219C430.15 470.617 441.822 482.289 456.219 482.289L586.568 482.289C600.965 482.289 612.637 470.617 612.637 456.219L612.637 156.418C612.637 142.02 600.965 130.348 586.568 130.348ZM599.602 456.219C599.602 463.418 593.767 469.254 586.568 469.254L456.219 469.254C449.02 469.254 443.184 463.418 443.184 456.219L443.184 156.418C443.184 149.219 449.02 143.383 456.219 143.383L586.568 143.383C593.767 143.383 599.602 149.219 599.602 156.418Z" fill="#000000" fill-rule="nonzero" fill-opacity="1" transform="matrix(1.0021 0 0 1 1963.01 877.306)"/><path d="M469.254 182.488 573.533 182.488 573.533 195.523 469.254 195.523Z" fill="#000000" fill-rule="nonzero" fill-opacity="1" transform="matrix(1.0021 0 0 1 1963.01 877.306)"/><path d="M469.254 221.592 573.533 221.592 573.533 234.627 469.254 234.627Z" fill="#000000" fill-rule="nonzero" fill-opacity="1" transform="matrix(1.0021 0 0 1 1963.01 877.306)"/><path d="M531.169 420.373C531.169 425.773 526.793 430.15 521.393 430.15 515.994 430.15 511.617 425.773 511.617 420.373 511.617 414.974 515.994 410.597 521.393 410.597 526.793 410.597 531.169 414.974 531.169 420.373Z" fill="#000000" fill-rule="nonzero" fill-opacity="1" transform="matrix(1.0021 0 0 1 1963.01 877.306)"/></g></g></g><text fill="#000000" fill-opacity="1" font-family="Yu Gothic,Yu Gothic_MSFontService,sans-serif" font-style="normal" font-variant="normal" font-weight="400" font-stretch="normal" font-size="46" text-anchor="start" direction="ltr" writing-mode="lr-tb" unicode-bidi="normal" text-decoration="none" transform="matrix(1 0 0 1 1397.62 963)">クライアント</text><text fill="#000000" fill-opacity="1" font-family="Yu Gothic,Yu Gothic_MSFontService,sans-serif" font-style="normal" font-variant="normal" font-weight="400" font-stretch="normal" font-size="46" text-anchor="start" direction="ltr" writing-mode="lr-tb" unicode-bidi="normal" text-decoration="none" transform="matrix(1 0 0 1 1672.62 963)">PC</text><text fill="#000000" fill-opacity="1" font-family="Yu Gothic,Yu Gothic_MSFontService,sans-serif" font-style="normal" font-variant="normal" font-weight="400" font-stretch="normal" font-size="46" text-anchor="start" direction="ltr" writing-mode="lr-tb" unicode-bidi="normal" text-decoration="none" transform="matrix(1 0 0 1 2372.79 963)">遠隔サーバ</text><text fill="#000000" fill-opacity="1" font-family="Yu Gothic,Yu Gothic_MSFontService,sans-serif" font-style="normal" font-variant="normal" font-weight="400" font-stretch="normal" font-size="46" text-anchor="start" direction="ltr" writing-mode="lr-tb" unicode-bidi="normal" text-decoration="none" transform="matrix(1 0 0 1 1427.7 1437)">ポート</text><text fill="#000000" fill-opacity="1" font-family="Yu Gothic,Yu Gothic_MSFontService,sans-serif" font-style="normal" font-variant="normal" font-weight="400" font-stretch="normal" font-size="46" text-anchor="start" direction="ltr" writing-mode="lr-tb" unicode-bidi="normal" text-decoration="none" transform="matrix(1 0 0 1 1565.2 1437)">:50000</text><rect x="2638.5" y="1114.5" width="248" height="144" stroke="#042433" stroke-width="6.875" stroke-linecap="butt" stroke-linejoin="miter" stroke-miterlimit="8" stroke-opacity="1" fill="none"/><text fill="#000000" fill-opacity="1" font-family="Yu Gothic,Yu Gothic_MSFontService,sans-serif" font-style="normal" font-variant="normal" font-weight="400" font-stretch="normal" font-size="46" text-anchor="start" direction="ltr" writing-mode="lr-tb" unicode-bidi="normal" text-decoration="none" transform="matrix(1 0 0 1 2725.22 1173)">s</text><text fill="#000000" fill-opacity="1" font-family="Yu Gothic,Yu Gothic_MSFontService,sans-serif" font-style="normal" font-variant="normal" font-weight="400" font-stretch="normal" font-size="46" text-anchor="start" direction="ltr" writing-mode="lr-tb" unicode-bidi="normal" text-decoration="none" transform="matrix(1 0 0 1 2748.71 1173)">sh</text><text fill="#000000" fill-opacity="1" font-family="Yu Gothic,Yu Gothic_MSFontService,sans-serif" font-style="normal" font-variant="normal" font-weight="400" font-stretch="normal" font-size="46" text-anchor="start" direction="ltr" writing-mode="lr-tb" unicode-bidi="normal" text-decoration="none" transform="matrix(1 0 0 1 2693.14 1228)">サーバ</text><rect x="2906.5" y="1114.5" width="380" height="144" stroke="#042433" stroke-width="6.875" stroke-linecap="butt" stroke-linejoin="miter" stroke-miterlimit="8" stroke-opacity="1" fill="none"/><text fill="#000000" fill-opacity="1" font-family="Yu Gothic,Yu Gothic_MSFontService,sans-serif" font-style="normal" font-variant="normal" font-weight="400" font-stretch="normal" font-size="46" text-anchor="start" direction="ltr" writing-mode="lr-tb" unicode-bidi="normal" text-decoration="none" transform="matrix(1 0 0 1 2981.42 1173)">ターゲット</text><text fill="#000000" fill-opacity="1" font-family="Yu Gothic,Yu Gothic_MSFontService,sans-serif" font-style="normal" font-variant="normal" font-weight="400" font-stretch="normal" font-size="46" text-anchor="start" direction="ltr" writing-mode="lr-tb" unicode-bidi="normal" text-decoration="none" transform="matrix(1 0 0 1 2957.63 1228)">ポート</text><text fill="#000000" fill-opacity="1" font-family="Yu Gothic,Yu Gothic_MSFontService,sans-serif" font-style="normal" font-variant="normal" font-weight="400" font-stretch="normal" font-size="46" text-anchor="start" direction="ltr" writing-mode="lr-tb" unicode-bidi="normal" text-decoration="none" transform="matrix(1 0 0 1 3095.13 1228)">:60000</text><text fill="#000000" fill-opacity="1" font-family="Yu Gothic,Yu Gothic_MSFontService,sans-serif" font-style="normal" font-variant="normal" font-weight="400" font-stretch="normal" font-size="46" text-anchor="start" direction="ltr" writing-mode="lr-tb" unicode-bidi="normal" text-decoration="none" transform="matrix(1 0 0 1 1999.66 1156)">s</text><text fill="#000000" fill-opacity="1" font-family="Yu Gothic,Yu Gothic_MSFontService,sans-serif" font-style="normal" font-variant="normal" font-weight="400" font-stretch="normal" font-size="46" text-anchor="start" direction="ltr" writing-mode="lr-tb" unicode-bidi="normal" text-decoration="none" transform="matrix(1 0 0 1 2023.15 1156)">sh</text><text fill="#000000" fill-opacity="1" font-family="Yu Gothic,Yu Gothic_MSFontService,sans-serif" font-style="normal" font-variant="normal" font-weight="400" font-stretch="normal" font-size="46" text-anchor="start" direction="ltr" writing-mode="lr-tb" unicode-bidi="normal" text-decoration="none" transform="matrix(1 0 0 1 2072.99 1156)">トンネル</text><rect x="2570.5" y="1041.5" width="751" height="290" stroke="#000000" stroke-width="6.875" stroke-linecap="butt" stroke-linejoin="miter" stroke-miterlimit="8" stroke-dasharray="6.875 6.875" stroke-opacity="1" fill="none"/></g></g></svg>